<svg width="410" height="57" viewBox="0 0 410 57" fill="none" xmlns="http://www.w3.org/2000/svg">
<rect y="39.7896" width="410" height="17" rx="7" fill="#7FB5BC" fill-opacity="0.1"/>
<rect x="0.5" y="40.2896" width="409" height="16" rx="6.5" stroke="black" stroke-opacity="0.2"/>
<rect y="40" width="311" height="17" rx="7" fill="#B28998"/>
<rect x="287" width="38" height="24" rx="6" fill="black"/>
<path d="M306 32.0005L318.413 17.0005H293.587L306 32.0005Z" fill="black"/>
<path d="M300.404 7.85774L297.212 15.3337H295.508L298.724 8.04974H294.62V6.60974H300.404V7.85774ZM301.41 10.8457C301.41 9.46174 301.658 8.37774 302.154 7.59374C302.658 6.80974 303.49 6.41774 304.65 6.41774C305.81 6.41774 306.638 6.80974 307.134 7.59374C307.638 8.37774 307.89 9.46174 307.89 10.8457C307.89 12.2377 307.638 13.3297 307.134 14.1217C306.638 14.9137 305.81 15.3097 304.65 15.3097C303.49 15.3097 302.658 14.9137 302.154 14.1217C301.658 13.3297 301.41 12.2377 301.41 10.8457ZM306.234 10.8457C306.234 10.2537 306.194 9.75774 306.114 9.35774C306.042 8.94974 305.89 8.61774 305.658 8.36174C305.434 8.10574 305.098 7.97774 304.65 7.97774C304.202 7.97774 303.862 8.10574 303.63 8.36174C303.406 8.61774 303.254 8.94974 303.174 9.35774C303.102 9.75774 303.066 10.2537 303.066 10.8457C303.066 11.4537 303.102 11.9657 303.174 12.3817C303.246 12.7897 303.398 13.1217 303.63 13.3777C303.862 13.6257 304.202 13.7497 304.65 13.7497C305.098 13.7497 305.438 13.6257 305.67 13.3777C305.902 13.1217 306.054 12.7897 306.126 12.3817C306.198 11.9657 306.234 11.4537 306.234 10.8457ZM308.976 8.73374C308.976 8.12574 309.152 7.64974 309.504 7.30574C309.864 6.96174 310.324 6.78974 310.884 6.78974C311.444 6.78974 311.9 6.96174 312.252 7.30574C312.612 7.64974 312.792 8.12574 312.792 8.73374C312.792 9.34974 312.612 9.82974 312.252 10.1737C311.9 10.5177 311.444 10.6897 310.884 10.6897C310.324 10.6897 309.864 10.5177 309.504 10.1737C309.152 9.82974 308.976 9.34974 308.976 8.73374ZM316.68 6.93374L311.964 15.3337H310.332L315.036 6.93374H316.68ZM310.872 7.79774C310.432 7.79774 310.212 8.10974 310.212 8.73374C310.212 9.36574 310.432 9.68174 310.872 9.68174C311.088 9.68174 311.256 9.60574 311.376 9.45374C311.496 9.29374 311.556 9.05374 311.556 8.73374C311.556 8.10974 311.328 7.79774 310.872 7.79774ZM314.244 13.5217C314.244 12.9057 314.42 12.4297 314.772 12.0937C315.132 11.7497 315.592 11.5777 316.152 11.5777C316.712 11.5777 317.164 11.7497 317.508 12.0937C317.86 12.4297 318.036 12.9057 318.036 13.5217C318.036 14.1377 317.86 14.6177 317.508 14.9617C317.164 15.3057 316.712 15.4777 316.152 15.4777C315.584 15.4777 315.124 15.3057 314.772 14.9617C314.42 14.6177 314.244 14.1377 314.244 13.5217ZM316.14 12.5857C315.684 12.5857 315.456 12.8977 315.456 13.5217C315.456 14.1537 315.684 14.4697 316.14 14.4697C316.588 14.4697 316.812 14.1537 316.812 13.5217C316.812 12.8977 316.588 12.5857 316.14 12.5857Z" fill="white"/>
<path d="M7.952 24.872H3.504L2.768 27H0.416L4.432 15.816H7.04L11.056 27H8.688L7.952 24.872ZM7.344 23.08L5.728 18.408L4.112 23.08H7.344ZM11.9811 22.536C11.9811 21.64 12.1571 20.8453 12.5091 20.152C12.8718 19.4587 13.3625 18.9253 13.9811 18.552C14.5998 18.1787 15.2878 17.992 16.0451 17.992C16.6211 17.992 17.1705 18.12 17.6931 18.376C18.2158 18.6213 18.6318 18.952 18.9411 19.368V15.16H21.2131V27H18.9411V25.688C18.6638 26.1253 18.2745 26.4773 17.7731 26.744C17.2718 27.0107 16.6905 27.144 16.0291 27.144C15.2825 27.144 14.5998 26.952 13.9811 26.568C13.3625 26.184 12.8718 25.6453 12.5091 24.952C12.1571 24.248 11.9811 23.4427 11.9811 22.536ZM18.9571 22.568C18.9571 22.024 18.8505 21.56 18.6371 21.176C18.4238 20.7813 18.1358 20.4827 17.7731 20.28C17.4105 20.0667 17.0211 19.96 16.6051 19.96C16.1891 19.96 15.8051 20.0613 15.4531 20.264C15.1011 20.4667 14.8131 20.7653 14.5891 21.16C14.3758 21.544 14.2691 22.0027 14.2691 22.536C14.2691 23.0693 14.3758 23.5387 14.5891 23.944C14.8131 24.3387 15.1011 24.6427 15.4531 24.856C15.8158 25.0693 16.1998 25.176 16.6051 25.176C17.0211 25.176 17.4105 25.0747 17.7731 24.872C18.1358 24.6587 18.4238 24.36 18.6371 23.976C18.8505 23.5813 18.9571 23.112 18.9571 22.568ZM27.3369 27.144C26.4835 27.144 25.7155 26.9573 25.0329 26.584C24.3502 26.2 23.8115 25.6613 23.4169 24.968C23.0329 24.2747 22.8409 23.4747 22.8409 22.568C22.8409 21.6613 23.0382 20.8613 23.4329 20.168C23.8382 19.4747 24.3875 18.9413 25.0809 18.568C25.7742 18.184 26.5475 17.992 27.4009 17.992C28.2542 17.992 29.0275 18.184 29.7209 18.568C30.4142 18.9413 30.9582 19.4747 31.3529 20.168C31.7582 20.8613 31.9609 21.6613 31.9609 22.568C31.9609 23.4747 31.7529 24.2747 31.3369 24.968C30.9315 25.6613 30.3769 26.2 29.6729 26.584C28.9795 26.9573 28.2009 27.144 27.3369 27.144ZM27.3369 25.192C27.7422 25.192 28.1209 25.096 28.4729 24.904C28.8355 24.7013 29.1235 24.4027 29.3369 24.008C29.5502 23.6133 29.6569 23.1333 29.6569 22.568C29.6569 21.7253 29.4329 21.08 28.9849 20.632C28.5475 20.1733 28.0089 19.944 27.3689 19.944C26.7289 19.944 26.1902 20.1733 25.7529 20.632C25.3262 21.08 25.1129 21.7253 25.1129 22.568C25.1129 23.4107 25.3209 24.0613 25.7369 24.52C26.1635 24.968 26.6969 25.192 27.3369 25.192ZM35.844 19.432C36.132 19.0053 36.5267 18.6587 37.028 18.392C37.54 18.1253 38.1213 17.992 38.772 17.992C39.5293 17.992 40.212 18.1787 40.82 18.552C41.4387 18.9253 41.924 19.4587 42.276 20.152C42.6387 20.8347 42.82 21.6293 42.82 22.536C42.82 23.4427 42.6387 24.248 42.276 24.952C41.924 25.6453 41.4387 26.184 40.82 26.568C40.212 26.952 39.5293 27.144 38.772 27.144C38.1107 27.144 37.5293 27.016 37.028 26.76C36.5373 26.4933 36.1427 26.152 35.844 25.736V27H33.604V15.16H35.844V19.432ZM40.532 22.536C40.532 22.0027 40.42 21.544 40.196 21.16C39.9827 20.7653 39.6947 20.4667 39.332 20.264C38.98 20.0613 38.596 19.96 38.18 19.96C37.7747 19.96 37.3907 20.0667 37.028 20.28C36.676 20.4827 36.388 20.7813 36.164 21.176C35.9507 21.5707 35.844 22.0347 35.844 22.568C35.844 23.1013 35.9507 23.5653 36.164 23.96C36.388 24.3547 36.676 24.6587 37.028 24.872C37.3907 25.0747 37.7747 25.176 38.18 25.176C38.596 25.176 38.98 25.0693 39.332 24.856C39.6947 24.6427 39.9827 24.3387 40.196 23.944C40.42 23.5493 40.532 23.08 40.532 22.536ZM52.6878 22.376C52.6878 22.696 52.6664 22.984 52.6238 23.24H46.1438C46.1971 23.88 46.4211 24.3813 46.8158 24.744C47.2104 25.1067 47.6958 25.288 48.2718 25.288C49.1038 25.288 49.6958 24.9307 50.0478 24.216H52.4638C52.2078 25.0693 51.7171 25.7733 50.9918 26.328C50.2664 26.872 49.3758 27.144 48.3198 27.144C47.4664 27.144 46.6984 26.9573 46.0158 26.584C45.3438 26.2 44.8158 25.6613 44.4318 24.968C44.0584 24.2747 43.8717 23.4747 43.8717 22.568C43.8717 21.6507 44.0584 20.8453 44.4318 20.152C44.8051 19.4587 45.3278 18.9253 45.9998 18.552C46.6718 18.1787 47.4451 17.992 48.3198 17.992C49.1624 17.992 49.9144 18.1733 50.5758 18.536C51.2478 18.8987 51.7651 19.416 52.1278 20.088C52.5011 20.7493 52.6878 21.512 52.6878 22.376ZM50.3678 21.736C50.3571 21.16 50.1491 20.7013 49.7438 20.36C49.3384 20.008 48.8424 19.832 48.2558 19.832C47.7011 19.832 47.2318 20.0027 46.8478 20.344C46.4744 20.6747 46.2451 21.1387 46.1598 21.736H50.3678ZM65.7353 15.832V17.64H62.7593V27H60.5193V17.64H57.5433V15.832H65.7353ZM71.3056 27.144C70.4523 27.144 69.6843 26.9573 69.0016 26.584C68.319 26.2 67.7803 25.6613 67.3856 24.968C67.0016 24.2747 66.8096 23.4747 66.8096 22.568C66.8096 21.6613 67.007 20.8613 67.4016 20.168C67.807 19.4747 68.3563 18.9413 69.0496 18.568C69.743 18.184 70.5163 17.992 71.3696 17.992C72.223 17.992 72.9963 18.184 73.6896 18.568C74.383 18.9413 74.927 19.4747 75.3216 20.168C75.727 20.8613 75.9296 21.6613 75.9296 22.568C75.9296 23.4747 75.7216 24.2747 75.3056 24.968C74.9003 25.6613 74.3456 26.2 73.6416 26.584C72.9483 26.9573 72.1696 27.144 71.3056 27.144ZM71.3056 25.192C71.711 25.192 72.0896 25.096 72.4416 24.904C72.8043 24.7013 73.0923 24.4027 73.3056 24.008C73.519 23.6133 73.6256 23.1333 73.6256 22.568C73.6256 21.7253 73.4016 21.08 72.9536 20.632C72.5163 20.1733 71.9776 19.944 71.3376 19.944C70.6976 19.944 70.159 20.1733 69.7216 20.632C69.295 21.08 69.0816 21.7253 69.0816 22.568C69.0816 23.4107 69.2896 24.0613 69.7056 24.52C70.1323 24.968 70.6656 25.192 71.3056 25.192ZM81.5088 27.144C80.6554 27.144 79.8874 26.9573 79.2048 26.584C78.5221 26.2 77.9834 25.6613 77.5888 24.968C77.2048 24.2747 77.0128 23.4747 77.0128 22.568C77.0128 21.6613 77.2101 20.8613 77.6048 20.168C78.0101 19.4747 78.5594 18.9413 79.2528 18.568C79.9461 18.184 80.7194 17.992 81.5728 17.992C82.4261 17.992 83.1994 18.184 83.8928 18.568C84.5861 18.9413 85.1301 19.4747 85.5248 20.168C85.9301 20.8613 86.1328 21.6613 86.1328 22.568C86.1328 23.4747 85.9248 24.2747 85.5087 24.968C85.1034 25.6613 84.5488 26.2 83.8448 26.584C83.1514 26.9573 82.3728 27.144 81.5088 27.144ZM81.5088 25.192C81.9141 25.192 82.2928 25.096 82.6448 24.904C83.0074 24.7013 83.2954 24.4027 83.5088 24.008C83.7221 23.6133 83.8288 23.1333 83.8288 22.568C83.8288 21.7253 83.6048 21.08 83.1568 20.632C82.7194 20.1733 82.1808 19.944 81.5408 19.944C80.9008 19.944 80.3621 20.1733 79.9248 20.632C79.4981 21.08 79.2848 21.7253 79.2848 22.568C79.2848 23.4107 79.4928 24.0613 79.9088 24.52C80.3354 24.968 80.8688 25.192 81.5088 25.192ZM90.0159 15.16V27H87.7759V15.16H90.0159ZM95.621 27.144C94.8957 27.144 94.245 27.016 93.669 26.76C93.093 26.4933 92.6343 26.136 92.293 25.688C91.9623 25.24 91.781 24.744 91.749 24.2H94.005C94.0477 24.5413 94.213 24.824 94.501 25.048C94.7997 25.272 95.1677 25.384 95.605 25.384C96.0317 25.384 96.3623 25.2987 96.597 25.128C96.8423 24.9573 96.965 24.7387 96.965 24.472C96.965 24.184 96.8157 23.9707 96.517 23.832C96.229 23.6827 95.765 23.5227 95.125 23.352C94.4637 23.192 93.9197 23.0267 93.493 22.856C93.077 22.6853 92.7143 22.424 92.405 22.072C92.1063 21.72 91.957 21.2453 91.957 20.648C91.957 20.1573 92.0957 19.7093 92.373 19.304C92.661 18.8987 93.0663 18.5787 93.589 18.344C94.1223 18.1093 94.7463 17.992 95.461 17.992C96.517 17.992 97.3597 18.2587 97.989 18.792C98.6183 19.3147 98.965 20.024 99.029 20.92H96.885C96.853 20.568 96.7037 20.2907 96.437 20.088C96.181 19.8747 95.8343 19.768 95.397 19.768C94.9917 19.768 94.677 19.8427 94.453 19.992C94.2397 20.1413 94.133 20.3493 94.133 20.616C94.133 20.9147 94.2823 21.144 94.581 21.304C94.8797 21.4533 95.3437 21.608 95.973 21.768C96.613 21.928 97.141 22.0933 97.557 22.264C97.973 22.4347 98.3303 22.7013 98.629 23.064C98.9383 23.416 99.0983 23.8853 99.109 24.472C99.109 24.984 98.965 25.4427 98.677 25.848C98.3997 26.2533 97.9943 26.5733 97.461 26.808C96.9383 27.032 96.325 27.144 95.621 27.144Z" fill="black"/>
</svg>
