<svg width="264" height="80" viewBox="0 0 264 80" fill="none" xmlns="http://www.w3.org/2000/svg">
<path d="M262.127 65.956C251.222 71.4864 239.292 75.1655 227.978 79.4617C226.538 80.0758 224.897 78.4283 224.899 77.1949C225.118 70.0008 224.926 62.3945 227.199 55.6145L226.994 55.4086C203.813 28.4376 158.182 25.478 125.295 23.774C87.4741 21.6503 47.5876 25.2788 14.2519 44.131C10.5466 47.0023 6.63526 50.0788 3.13436 53.5671C1.48688 55.2087 -0.770293 52.9434 0.671993 51.0959C1.2898 50.4803 1.90761 49.8647 2.52541 49.2491C1.70462 48.4254 1.70684 47.192 2.73651 46.166C5.207 44.1147 8.08788 42.4754 10.7636 40.6301C68.2136 -13.3307 177.366 -11.2843 235.039 39.5944C236.487 34.4578 238.347 29.3227 239.59 23.9798C240.005 21.5138 243.088 21.7252 244.319 23.372C253.137 35.1048 257.428 49.297 263.161 62.4632C263.776 63.4918 263.773 65.1364 262.127 65.956ZM242.868 30.1524C241.422 34.0559 239.565 37.5469 238.324 41.656C237.705 43.0945 236.266 43.2968 235.444 42.8842C234.826 43.4998 234.004 43.4987 233.183 43.0857C175.903 2.07487 102.527 -4.42964 42.2411 26.0918C69.8017 17.9187 100.227 17.1511 127.976 18.64C148.325 19.7041 168.26 22.4126 187.78 27.5869C202.984 31.7256 220.239 38.7459 227.819 53.3544C228.851 51.095 232.137 52.7455 231.723 54.8004C230.889 60.9659 230.262 66.9262 230.046 72.8873C239.302 69.4089 248.764 66.1376 257.611 61.8362C252.902 51.3439 249.017 40.0307 242.868 30.1524Z" fill="#7FB5BC" fill-opacity="0.95"/>
</svg>
