<svg width="50" height="50" viewBox="0 0 50 50" fill="none" xmlns="http://www.w3.org/2000/svg">
<path d="M7.50011 10.0001H8.23261L5.36511 7.13511C5.24889 7.01889 5.1567 6.88092 5.09381 6.72907C5.03091 6.57722 4.99854 6.41447 4.99854 6.25011C4.99854 6.08575 5.03091 5.923 5.09381 5.77116C5.1567 5.61931 5.24889 5.48133 5.36511 5.36511C5.48133 5.24889 5.61931 5.1567 5.77116 5.09381C5.923 5.03091 6.08575 4.99854 6.25011 4.99854C6.41447 4.99854 6.57722 5.03091 6.72907 5.09381C6.88092 5.1567 7.01889 5.24889 7.13511 5.36511L20.6501 18.8826L44.6351 42.8651C44.8698 43.0998 45.0017 43.4182 45.0017 43.7501C45.0017 44.0821 44.8698 44.4004 44.6351 44.6351C44.4004 44.8698 44.0821 45.0017 43.7501 45.0017C43.4182 45.0017 43.0998 44.8698 42.8651 44.6351L37.9701 39.7401L37.8751 40.5726C37.7346 41.7916 37.1508 42.9163 36.2348 43.7327C35.3188 44.5491 34.1346 45.0002 32.9076 45.0001H17.0926C15.866 45.0003 14.6821 44.5495 13.7662 43.7336C12.8502 42.9177 12.2662 41.7936 12.1251 40.5751L8.88261 12.5001H7.50011C7.20755 12.5002 6.92422 12.3977 6.69947 12.2104C6.47471 12.0231 6.32278 11.7629 6.27011 11.4751L6.25011 11.2501C6.25011 10.9186 6.38181 10.6007 6.61623 10.3662C6.85065 10.1318 7.16859 10.0001 7.50011 10.0001ZM35.7151 37.4826L30.0001 31.7676V35.1551C30.0001 35.7601 29.4401 36.2501 28.7501 36.2501C28.1376 36.2501 27.6251 35.8626 27.5201 35.3526L27.5001 35.1551V29.2676L22.5001 24.2676V35.1551C22.5001 35.7601 21.9401 36.2501 21.2501 36.2501C20.6376 36.2501 20.1251 35.8626 20.0201 35.3526L20.0001 35.1551V21.7676L11.4901 13.2576L14.6076 40.2876C14.6782 40.8971 14.9704 41.4593 15.4286 41.8673C15.8868 42.2753 16.4791 42.5005 17.0926 42.5001H32.9076C33.5207 42.4999 34.1124 42.2744 34.5701 41.8665C35.0278 41.4585 35.3196 40.8966 35.3901 40.2876L35.7151 37.4826V37.4826Z" fill="#B28998"/>
<path d="M38.7025 33.4L36.445 31.1425L38.595 12.5H17.8025L15.3025 10H18.75C18.75 8.3424 19.4085 6.75268 20.5806 5.58058C21.7527 4.40848 23.3424 3.75 25 3.75C26.6576 3.75 28.2473 4.40848 29.4194 5.58058C30.5915 6.75268 31.25 8.3424 31.25 10H42.5C42.8315 10 43.1495 10.1317 43.3839 10.3661C43.6183 10.6005 43.75 10.9185 43.75 11.25C43.75 11.5815 43.6183 11.8995 43.3839 12.1339C43.1495 12.3683 42.8315 12.5 42.5 12.5H41.115L38.7025 33.4V33.4ZM28.75 10C28.75 9.00544 28.3549 8.05161 27.6516 7.34835C26.9484 6.64509 25.9946 6.25 25 6.25C24.0054 6.25 23.0516 6.64509 22.3483 7.34835C21.6451 8.05161 21.25 9.00544 21.25 10H28.75Z" fill="#B28998"/>
<path d="M30 24.6975L27.5 22.1975V19.845C27.5 19.24 28.06 18.75 28.75 18.75C29.3625 18.75 29.875 19.1375 29.98 19.6475L30 19.845V24.695V24.6975Z" fill="#B28998"/>
</svg>
