<svg width="46" height="46" viewBox="0 0 46 46" fill="none" xmlns="http://www.w3.org/2000/svg">
<path d="M32.3697 31.2028L34.8698 28.3907C35.2604 27.9514 35.9401 28.2589 35.9401 28.8917V41.6691C35.9401 43.9978 34.2604 45.8872 32.19 45.8872H4.68941C2.61905 45.8872 0.939331 43.9978 0.939331 41.6691V10.7361C0.939331 8.40735 2.61905 6.51797 4.68941 6.51797H26.0571C26.6118 6.51797 26.893 7.27372 26.5024 7.7219L24.0023 10.534C23.8851 10.6658 23.7289 10.7361 23.557 10.7361H4.68941V41.6691H32.19V31.695C32.19 31.5104 32.2525 31.3347 32.3697 31.2028ZM44.6043 13.4691L24.0883 36.5458L17.0256 37.4246C14.9787 37.6794 13.2365 35.7373 13.463 33.4174L14.2443 25.4732L34.7604 2.39651C36.5495 0.384107 39.4402 0.384107 41.2215 2.39651L44.5965 6.19283C46.3856 8.20523 46.3856 11.4655 44.6043 13.4691V13.4691ZM36.8854 16.1845L32.3463 11.0788L17.8303 27.4153L17.26 33.1537L22.3617 32.5122L36.8854 16.1845ZM41.948 9.18067L38.573 5.38435C38.2526 5.02405 37.7292 5.02405 37.4167 5.38435L35.0026 8.09977L39.5417 13.2055L41.9558 10.49C42.2684 10.121 42.2684 9.54097 41.948 9.18067V9.18067Z" fill="#B28998"/>
</svg>
