<svg width="41" height="41" viewBox="0 0 41 41" fill="none" xmlns="http://www.w3.org/2000/svg">
<path d="M18.1103 15.7617V18.0567H16.4303V20.8617H18.1103V29.2001H21.5636V20.8617H23.8803C23.8803 20.8617 24.0986 19.5167 24.2036 18.0451H21.577V16.1284C21.577 15.8401 21.9536 15.4551 22.327 15.4551H24.207V12.5334H21.6486C18.0253 12.5334 18.1103 15.3417 18.1103 15.7617Z" fill="#2454FF"/>
<path d="M20.2853 34.2001C23.8215 34.2001 27.2129 32.7953 29.7134 30.2948C32.2139 27.7943 33.6187 24.403 33.6187 20.8667C33.6187 17.3305 32.2139 13.9391 29.7134 11.4386C27.2129 8.93816 23.8215 7.53341 20.2853 7.53341C16.7491 7.53341 13.3577 8.93816 10.8572 11.4386C8.35674 13.9391 6.95199 17.3305 6.95199 20.8667C6.95199 24.403 8.35674 27.7943 10.8572 30.2948C13.3577 32.7953 16.7491 34.2001 20.2853 34.2001V34.2001ZM20.2853 37.5334C11.0803 37.5334 3.61865 30.0717 3.61865 20.8667C3.61865 11.6617 11.0803 4.20007 20.2853 4.20007C29.4903 4.20007 36.952 11.6617 36.952 20.8667C36.952 30.0717 29.4903 37.5334 20.2853 37.5334Z" fill="#2454FF"/>
</svg>
