<svg width="50" height="50" viewBox="0 0 50 50" fill="none" xmlns="http://www.w3.org/2000/svg">
<path d="M22.2813 18.6188V21.4875H20.1813V24.9938H22.2813V35.4167H26.5979V24.9938H29.4938C29.4938 24.9938 29.7667 23.3125 29.8979 21.473H26.6146V19.0771C26.6146 18.7167 27.0854 18.2355 27.5521 18.2355H29.9021V14.5834H26.7042C22.175 14.5834 22.2813 18.0938 22.2813 18.6188Z" fill="#144950" fill-opacity="0.65"/>
<path d="M25 41.6667C29.4203 41.6667 33.6595 39.9107 36.7851 36.7851C39.9107 33.6595 41.6667 29.4203 41.6667 25C41.6667 20.5797 39.9107 16.3405 36.7851 13.2149C33.6595 10.0893 29.4203 8.33335 25 8.33335C20.5797 8.33335 16.3405 10.0893 13.2149 13.2149C10.0893 16.3405 8.33335 20.5797 8.33335 25C8.33335 29.4203 10.0893 33.6595 13.2149 36.7851C16.3405 39.9107 20.5797 41.6667 25 41.6667V41.6667ZM25 45.8334C13.4938 45.8334 4.16669 36.5063 4.16669 25C4.16669 13.4938 13.4938 4.16669 25 4.16669C36.5063 4.16669 45.8334 13.4938 45.8334 25C45.8334 36.5063 36.5063 45.8334 25 45.8334Z" fill="#144950" fill-opacity="0.65"/>
</svg>
