<svg width="410" height="50" viewBox="0 0 410 50" fill="none" xmlns="http://www.w3.org/2000/svg">
<rect y="32.7896" width="410" height="17" rx="7" fill="white"/>
<rect x="0.5" y="33.2896" width="409" height="16" rx="6.5" stroke="black" stroke-opacity="0.2"/>
<rect y="32.7896" width="410" height="17" rx="7" fill="white"/>
<rect x="0.5" y="33.2896" width="409" height="16" rx="6.5" stroke="black" stroke-opacity="0.2"/>
<rect y="33" width="311" height="17" rx="7" fill="#B28998"/>
<rect x="288" width="38" height="24" rx="6" fill="black"/>
<path d="M307 32.0005L319.413 17.0005H294.587L307 32.0005Z" fill="black"/>
<path d="M301.404 7.85774L298.212 15.3337H296.508L299.724 8.04974H295.62V6.60974H301.404V7.85774ZM302.41 10.8457C302.41 9.46174 302.658 8.37774 303.154 7.59374C303.658 6.80974 304.49 6.41774 305.65 6.41774C306.81 6.41774 307.638 6.80974 308.134 7.59374C308.638 8.37774 308.89 9.46174 308.89 10.8457C308.89 12.2377 308.638 13.3297 308.134 14.1217C307.638 14.9137 306.81 15.3097 305.65 15.3097C304.49 15.3097 303.658 14.9137 303.154 14.1217C302.658 13.3297 302.41 12.2377 302.41 10.8457ZM307.234 10.8457C307.234 10.2537 307.194 9.75774 307.114 9.35774C307.042 8.94974 306.89 8.61774 306.658 8.36174C306.434 8.10574 306.098 7.97774 305.65 7.97774C305.202 7.97774 304.862 8.10574 304.63 8.36174C304.406 8.61774 304.254 8.94974 304.174 9.35774C304.102 9.75774 304.066 10.2537 304.066 10.8457C304.066 11.4537 304.102 11.9657 304.174 12.3817C304.246 12.7897 304.398 13.1217 304.63 13.3777C304.862 13.6257 305.202 13.7497 305.65 13.7497C306.098 13.7497 306.438 13.6257 306.67 13.3777C306.902 13.1217 307.054 12.7897 307.126 12.3817C307.198 11.9657 307.234 11.4537 307.234 10.8457ZM309.976 8.73374C309.976 8.12574 310.152 7.64974 310.504 7.30574C310.864 6.96174 311.324 6.78974 311.884 6.78974C312.444 6.78974 312.9 6.96174 313.252 7.30574C313.612 7.64974 313.792 8.12574 313.792 8.73374C313.792 9.34974 313.612 9.82974 313.252 10.1737C312.9 10.5177 312.444 10.6897 311.884 10.6897C311.324 10.6897 310.864 10.5177 310.504 10.1737C310.152 9.82974 309.976 9.34974 309.976 8.73374ZM317.68 6.93374L312.964 15.3337H311.332L316.036 6.93374H317.68ZM311.872 7.79774C311.432 7.79774 311.212 8.10974 311.212 8.73374C311.212 9.36574 311.432 9.68174 311.872 9.68174C312.088 9.68174 312.256 9.60574 312.376 9.45374C312.496 9.29374 312.556 9.05374 312.556 8.73374C312.556 8.10974 312.328 7.79774 311.872 7.79774ZM315.244 13.5217C315.244 12.9057 315.42 12.4297 315.772 12.0937C316.132 11.7497 316.592 11.5777 317.152 11.5777C317.712 11.5777 318.164 11.7497 318.508 12.0937C318.86 12.4297 319.036 12.9057 319.036 13.5217C319.036 14.1377 318.86 14.6177 318.508 14.9617C318.164 15.3057 317.712 15.4777 317.152 15.4777C316.584 15.4777 316.124 15.3057 315.772 14.9617C315.42 14.6177 315.244 14.1377 315.244 13.5217ZM317.14 12.5857C316.684 12.5857 316.456 12.8977 316.456 13.5217C316.456 14.1537 316.684 14.4697 317.14 14.4697C317.588 14.4697 317.812 14.1537 317.812 13.5217C317.812 12.8977 317.588 12.5857 317.14 12.5857Z" fill="white"/>
<rect y="33" width="311" height="17" rx="7" fill="#B28998"/>
<path d="M12 7.62155V9.42955H7.344V12.2936H10.912V14.0696H7.344V18.7896H5.104V7.62155H12ZM14.7244 8.86955C14.3297 8.86955 13.999 8.74688 13.7324 8.50155C13.4764 8.24555 13.3484 7.93088 13.3484 7.55755C13.3484 7.18422 13.4764 6.87488 13.7324 6.62955C13.999 6.37355 14.3297 6.24555 14.7244 6.24555C15.119 6.24555 15.4444 6.37355 15.7004 6.62955C15.967 6.87488 16.1004 7.18422 16.1004 7.55755C16.1004 7.93088 15.967 8.24555 15.7004 8.50155C15.4444 8.74688 15.119 8.86955 14.7244 8.86955ZM15.8284 9.92555V18.7896H13.5884V9.92555H15.8284ZM21.5135 9.78155C22.1748 9.78155 22.7562 9.91488 23.2575 10.1816C23.7588 10.4376 24.1535 10.7736 24.4415 11.1896V9.92555H26.6975V18.8536C26.6975 19.6749 26.5322 20.4056 26.2015 21.0456C25.8708 21.6962 25.3748 22.2082 24.7135 22.5816C24.0522 22.9656 23.2522 23.1576 22.3135 23.1576C21.0548 23.1576 20.0202 22.8642 19.2095 22.2776C18.4095 21.6909 17.9562 20.8909 17.8495 19.8776H20.0735C20.1908 20.2829 20.4415 20.6029 20.8255 20.8376C21.2202 21.0829 21.6948 21.2056 22.2495 21.2056C22.9002 21.2056 23.4282 21.0082 23.8335 20.6136C24.2388 20.2296 24.4415 19.6429 24.4415 18.8536V17.4776C24.1535 17.8936 23.7535 18.2402 23.2415 18.5176C22.7402 18.7949 22.1642 18.9336 21.5135 18.9336C20.7668 18.9336 20.0842 18.7416 19.4655 18.3576C18.8468 17.9736 18.3562 17.4349 17.9935 16.7416C17.6415 16.0376 17.4655 15.2322 17.4655 14.3256C17.4655 13.4296 17.6415 12.6349 17.9935 11.9416C18.3562 11.2482 18.8415 10.7149 19.4495 10.3416C20.0682 9.96822 20.7562 9.78155 21.5135 9.78155ZM24.4415 14.3576C24.4415 13.8136 24.3348 13.3496 24.1215 12.9656C23.9082 12.5709 23.6202 12.2722 23.2575 12.0696C22.8948 11.8562 22.5055 11.7496 22.0895 11.7496C21.6735 11.7496 21.2895 11.8509 20.9375 12.0536C20.5855 12.2562 20.2975 12.5549 20.0735 12.9496C19.8602 13.3336 19.7535 13.7922 19.7535 14.3256C19.7535 14.8589 19.8602 15.3282 20.0735 15.7336C20.2975 16.1282 20.5855 16.4322 20.9375 16.6456C21.3002 16.8589 21.6842 16.9656 22.0895 16.9656C22.5055 16.9656 22.8948 16.8642 23.2575 16.6616C23.6202 16.4482 23.9082 16.1496 24.1215 15.7656C24.3348 15.3709 24.4415 14.9016 24.4415 14.3576ZM39.8933 9.79755C40.9813 9.79755 41.8559 10.1336 42.5173 10.8056C43.1893 11.4669 43.5253 12.3949 43.5253 13.5896V18.7896H41.2853V13.8936C41.2853 13.2002 41.1093 12.6722 40.7573 12.3096C40.4053 11.9362 39.9253 11.7496 39.3173 11.7496C38.7093 11.7496 38.2239 11.9362 37.8613 12.3096C37.5093 12.6722 37.3333 13.2002 37.3333 13.8936V18.7896H35.0933V13.8936C35.0933 13.2002 34.9173 12.6722 34.5653 12.3096C34.2133 11.9362 33.7333 11.7496 33.1253 11.7496C32.5066 11.7496 32.0159 11.9362 31.6533 12.3096C31.3013 12.6722 31.1253 13.2002 31.1253 13.8936V18.7896H28.8853V9.92555H31.1253V10.9976C31.4133 10.6242 31.7813 10.3309 32.2293 10.1175C32.6879 9.90422 33.1893 9.79755 33.7333 9.79755C34.4266 9.79755 35.0453 9.94688 35.5893 10.2456C36.1333 10.5336 36.5546 10.9496 36.8533 11.4936C37.1413 10.9816 37.5573 10.5709 38.1013 10.2615C38.6559 9.95222 39.2533 9.79755 39.8933 9.79755ZM45.0749 14.3256C45.0749 13.4296 45.2509 12.6349 45.6029 11.9416C45.9655 11.2482 46.4509 10.7149 47.0589 10.3416C47.6775 9.96822 48.3655 9.78155 49.1229 9.78155C49.7842 9.78155 50.3602 9.91488 50.8509 10.1816C51.3522 10.4482 51.7522 10.7842 52.0509 11.1896V9.92555H54.3069V18.7896H52.0509V17.4936C51.7629 17.9096 51.3629 18.2562 50.8509 18.5336C50.3495 18.8002 49.7682 18.9336 49.1069 18.9336C48.3602 18.9336 47.6775 18.7416 47.0589 18.3576C46.4509 17.9736 45.9655 17.4349 45.6029 16.7416C45.2509 16.0376 45.0749 15.2322 45.0749 14.3256ZM52.0509 14.3576C52.0509 13.8136 51.9442 13.3496 51.7309 12.9656C51.5175 12.5709 51.2295 12.2722 50.8669 12.0696C50.5042 11.8562 50.1149 11.7496 49.6989 11.7496C49.2829 11.7496 48.8989 11.8509 48.5469 12.0536C48.1949 12.2562 47.9069 12.5549 47.6829 12.9496C47.4695 13.3336 47.3629 13.7922 47.3629 14.3256C47.3629 14.8589 47.4695 15.3282 47.6829 15.7336C47.9069 16.1282 48.1949 16.4322 48.5469 16.6456C48.9095 16.8589 49.2935 16.9656 49.6989 16.9656C50.1149 16.9656 50.5042 16.8642 50.8669 16.6616C51.2295 16.4482 51.5175 16.1496 51.7309 15.7656C51.9442 15.3709 52.0509 14.9016 52.0509 14.3576Z" fill="black"/>
</svg>
