<svg width="173" height="75" viewBox="0 0 173 75" fill="none" xmlns="http://www.w3.org/2000/svg">
<path d="M149.323 16.5288C143.946 16.5288 138.79 18.7598 134.988 22.7309C131.186 26.7021 129.05 32.0881 129.05 37.7041C129.05 43.3202 131.186 48.7062 134.988 52.6774C138.79 56.6485 143.946 58.8795 149.323 58.8795C154.699 58.8795 159.855 56.6485 163.657 52.6774C167.459 48.7062 169.595 43.3202 169.595 37.7041C169.595 32.0881 167.459 26.7021 163.657 22.7309C159.855 18.7598 154.699 16.5288 149.323 16.5288V16.5288ZM149.323 13.5038C155.467 13.5038 161.36 16.0535 165.705 20.5919C170.05 25.1304 172.491 31.2858 172.491 37.7041C172.491 44.1225 170.05 50.2779 165.705 54.8164C161.36 59.3548 155.467 61.9045 149.323 61.9045C143.178 61.9045 137.285 59.3548 132.94 54.8164C128.595 50.2779 126.154 44.1225 126.154 37.7041C126.154 31.2858 128.595 25.1304 132.94 20.5919C137.285 16.0535 143.178 13.5038 149.323 13.5038V13.5038Z" fill="#9D1E89" fill-opacity="0.96"/>
<path d="M149.323 26.6165C147.451 26.6153 145.613 27.1294 143.994 28.1053C142.376 29.0809 141.035 30.4831 140.104 32.1684C139.975 32.4026 139.765 32.567 139.528 32.6335C139.291 32.6998 139.038 32.6658 138.822 32.5357L149.323 27.1165M149.323 26.6165L149.323 27.1165M149.323 26.6165C149.323 26.6165 149.323 26.6165 149.323 26.6165V27.1165M149.323 26.6165C153.269 26.6166 156.704 28.8546 158.54 32.1667M149.323 27.1165C153.073 27.1165 156.348 29.2431 158.103 32.4103M158.54 32.1667C158.54 32.1664 158.54 32.166 158.539 32.1656L158.103 32.4103M158.54 32.1667C158.67 32.3983 158.879 32.5604 159.115 32.6257C159.352 32.6909 159.604 32.6566 159.818 32.5271C160.034 32.397 160.198 32.1791 160.266 31.9159C160.334 31.6528 160.3 31.3726 160.173 31.1381M158.54 32.1667C158.54 32.1672 158.54 32.1676 158.541 32.168L158.103 32.4103M158.103 32.4103L160.173 31.1381M160.173 31.1381C159.071 29.1436 157.487 27.4901 155.582 26.3419C153.678 25.1935 151.519 24.5904 149.323 24.5914L149.322 24.5914C147.126 24.591 144.968 25.1944 143.063 26.3427C141.158 27.4912 139.574 29.1449 138.471 31.1397C138.342 31.3745 138.306 31.6562 138.374 31.9213C138.441 32.1859 138.605 32.4051 138.822 32.5357L160.173 31.1381ZM143.53 38.2041C144.1 38.2041 144.687 38.5672 145.157 39.3026C145.622 40.0322 145.927 41.0701 145.927 42.2417C145.927 43.4133 145.622 44.4512 145.157 45.1808C144.687 45.9162 144.1 46.2793 143.53 46.2793C142.961 46.2793 142.374 45.9162 141.904 45.1808C141.439 44.4512 141.134 43.4133 141.134 42.2417C141.134 41.0701 141.439 40.0322 141.904 39.3026C142.374 38.5672 142.961 38.2041 143.53 38.2041ZM155.115 38.2041C155.684 38.2041 156.271 38.5672 156.741 39.3026C157.206 40.0322 157.511 41.0701 157.511 42.2417C157.511 43.4133 157.206 44.4512 156.741 45.1808C156.271 45.9162 155.684 46.2793 155.115 46.2793C154.545 46.2793 153.958 45.9162 153.489 45.1808C153.023 44.4512 152.719 43.4133 152.719 42.2417C152.719 41.0701 153.023 40.0322 153.489 39.3026C153.958 38.5672 154.545 38.2041 155.115 38.2041Z" fill="#9D1E89" stroke="#9D1E89"/>
<path d="M60.4695 26.1721V49.8021H56.5935V39.4661H45.4755V49.8021H41.5995V26.1721H45.4755V36.3041H56.5935V26.1721H60.4695ZM82.0622 39.9761C82.0622 40.6788 82.0168 41.3135 81.9262 41.8801H67.6122C67.7255 43.3761 68.2808 44.5775 69.2782 45.4841C70.2755 46.3908 71.4995 46.8441 72.9502 46.8441C75.0355 46.8441 76.5088 45.9715 77.3702 44.2261H81.5522C80.9855 45.9488 79.9542 47.3655 78.4582 48.4761C76.9848 49.5641 75.1488 50.1081 72.9502 50.1081C71.1595 50.1081 69.5502 49.7115 68.1222 48.9181C66.7168 48.1021 65.6062 46.9688 64.7902 45.5181C63.9968 44.0448 63.6002 42.3448 63.6002 40.4181C63.6002 38.4915 63.9855 36.8028 64.7562 35.3521C65.5495 33.8788 66.6488 32.7455 68.0542 31.9521C69.4822 31.1588 71.1142 30.7621 72.9502 30.7621C74.7182 30.7621 76.2935 31.1475 77.6762 31.9181C79.0588 32.6888 80.1355 33.7768 80.9062 35.1821C81.6768 36.5648 82.0622 38.1628 82.0622 39.9761ZM78.0162 38.7521C77.9935 37.3241 77.4835 36.1795 76.4862 35.3181C75.4888 34.4568 74.2535 34.0261 72.7802 34.0261C71.4428 34.0261 70.2982 34.4568 69.3462 35.3181C68.3942 36.1568 67.8275 37.3015 67.6462 38.7521H78.0162ZM102.061 31.0681L90.5685 58.6081H86.5565L90.3645 49.4961L82.9865 31.0681H87.3045L92.5745 45.3481L98.0485 31.0681H102.061Z" fill="#2454FF"/>
</svg>
