<svg width="411" height="50" viewBox="0 0 411 50" fill="none" xmlns="http://www.w3.org/2000/svg">
<rect y="32.7896" width="410" height="17" rx="7" fill="white"/>
<rect x="0.5" y="33.2896" width="409" height="16" rx="6.5" stroke="black" stroke-opacity="0.2"/>
<rect y="33" width="399" height="17" rx="7" fill="#B28998"/>
<rect x="373" width="38" height="24" rx="6" fill="black"/>
<path d="M392 32.0004L404.413 17.0004H379.587L392 32.0004Z" fill="black"/>
<path d="M382.903 12.8737C382.967 13.2257 383.111 13.4977 383.335 13.6897C383.567 13.8737 383.875 13.9657 384.259 13.9657C384.755 13.9657 385.115 13.7617 385.339 13.3537C385.563 12.9377 385.675 12.2417 385.675 11.2657C385.491 11.5217 385.231 11.7217 384.895 11.8657C384.567 12.0097 384.211 12.0817 383.827 12.0817C383.315 12.0817 382.851 11.9777 382.435 11.7697C382.027 11.5537 381.703 11.2377 381.463 10.8217C381.223 10.3977 381.103 9.88574 381.103 9.28574C381.103 8.39774 381.367 7.69374 381.895 7.17374C382.423 6.64574 383.143 6.38174 384.055 6.38174C385.191 6.38174 385.991 6.74574 386.455 7.47374C386.927 8.20174 387.163 9.29774 387.163 10.7617C387.163 11.8017 387.071 12.6537 386.887 13.3177C386.711 13.9817 386.403 14.4857 385.963 14.8297C385.531 15.1737 384.939 15.3457 384.187 15.3457C383.595 15.3457 383.091 15.2337 382.675 15.0097C382.259 14.7777 381.939 14.4777 381.715 14.1097C381.499 13.7337 381.375 13.3217 381.343 12.8737H382.903ZM384.175 10.7137C384.591 10.7137 384.919 10.5857 385.159 10.3297C385.399 10.0737 385.519 9.72974 385.519 9.29774C385.519 8.82574 385.391 8.46174 385.135 8.20574C384.887 7.94174 384.547 7.80974 384.115 7.80974C383.683 7.80974 383.339 7.94574 383.083 8.21774C382.835 8.48174 382.711 8.83374 382.711 9.27374C382.711 9.69774 382.831 10.0457 383.071 10.3177C383.319 10.5817 383.687 10.7137 384.175 10.7137ZM394.039 7.85774L390.847 15.3337H389.143L392.359 8.04974H388.255V6.60974H394.039V7.85774ZM394.853 8.73374C394.853 8.12574 395.029 7.64974 395.381 7.30574C395.741 6.96174 396.201 6.78974 396.761 6.78974C397.321 6.78974 397.777 6.96174 398.129 7.30574C398.489 7.64974 398.669 8.12574 398.669 8.73374C398.669 9.34974 398.489 9.82974 398.129 10.1737C397.777 10.5177 397.321 10.6897 396.761 10.6897C396.201 10.6897 395.741 10.5177 395.381 10.1737C395.029 9.82974 394.853 9.34974 394.853 8.73374ZM402.557 6.93374L397.841 15.3337H396.209L400.913 6.93374H402.557ZM396.749 7.79774C396.309 7.79774 396.089 8.10974 396.089 8.73374C396.089 9.36574 396.309 9.68174 396.749 9.68174C396.965 9.68174 397.133 9.60574 397.253 9.45374C397.373 9.29374 397.433 9.05374 397.433 8.73374C397.433 8.10974 397.205 7.79774 396.749 7.79774ZM400.121 13.5217C400.121 12.9057 400.297 12.4297 400.649 12.0937C401.009 11.7497 401.469 11.5777 402.029 11.5777C402.589 11.5777 403.041 11.7497 403.385 12.0937C403.737 12.4297 403.913 12.9057 403.913 13.5217C403.913 14.1377 403.737 14.6177 403.385 14.9617C403.041 15.3057 402.589 15.4777 402.029 15.4777C401.461 15.4777 401.001 15.3057 400.649 14.9617C400.297 14.6177 400.121 14.1377 400.121 13.5217ZM402.017 12.5857C401.561 12.5857 401.333 12.8977 401.333 13.5217C401.333 14.1537 401.561 14.4697 402.017 14.4697C402.465 14.4697 402.689 14.1537 402.689 13.5217C402.689 12.8977 402.465 12.5857 402.017 12.5857Z" fill="white"/>
<path d="M14.6258 5.832V17H12.3858V12.248H7.60181V17H5.36181V5.832H7.60181V10.424H12.3858V5.832H14.6258ZM19.4386 9.976V14.264C19.4386 14.5627 19.5079 14.7813 19.6466 14.92C19.7959 15.048 20.0412 15.112 20.3826 15.112H21.4226V17H20.0146C18.1266 17 17.1826 16.0827 17.1826 14.248V9.976H16.1266V8.136H17.1826V5.944H19.4386V8.136H21.4226V9.976H19.4386ZM34.0417 8.008C35.1297 8.008 36.0044 8.344 36.6657 9.016C37.3377 9.67733 37.6737 10.6053 37.6737 11.8V17H35.4337V12.104C35.4337 11.4107 35.2577 10.8827 34.9057 10.52C34.5537 10.1467 34.0737 9.96 33.4657 9.96C32.8577 9.96 32.3724 10.1467 32.0097 10.52C31.6577 10.8827 31.4817 11.4107 31.4817 12.104V17H29.2417V12.104C29.2417 11.4107 29.0657 10.8827 28.7137 10.52C28.3617 10.1467 27.8817 9.96 27.2737 9.96C26.655 9.96 26.1644 10.1467 25.8017 10.52C25.4497 10.8827 25.2737 11.4107 25.2737 12.104V17H23.0337V8.136H25.2737V9.208C25.5617 8.83467 25.9297 8.54133 26.3777 8.328C26.8364 8.11467 27.3377 8.008 27.8817 8.008C28.575 8.008 29.1937 8.15733 29.7377 8.456C30.2817 8.744 30.703 9.16 31.0017 9.704C31.2897 9.192 31.7057 8.78133 32.2497 8.472C32.8044 8.16267 33.4017 8.008 34.0417 8.008ZM42.0393 5.16V17H39.7993V5.16H42.0393ZM46.7004 14.648L44.8284 19.144H43.3884L44.4284 14.648H46.7004ZM51.5834 11.4C51.5834 10.3013 51.8288 9.32 52.3194 8.456C52.8208 7.58133 53.4981 6.904 54.3514 6.424C55.2154 5.93333 56.1808 5.688 57.2474 5.688C58.4954 5.688 59.5888 6.008 60.5274 6.648C61.4661 7.288 62.1221 8.17333 62.4954 9.304H59.9194C59.6634 8.77067 59.3008 8.37067 58.8314 8.104C58.3728 7.83733 57.8394 7.704 57.2314 7.704C56.5808 7.704 55.9994 7.85867 55.4874 8.168C54.9861 8.46667 54.5914 8.89333 54.3034 9.448C54.0261 10.0027 53.8874 10.6533 53.8874 11.4C53.8874 12.136 54.0261 12.7867 54.3034 13.352C54.5914 13.9067 54.9861 14.3387 55.4874 14.648C55.9994 14.9467 56.5808 15.096 57.2314 15.096C57.8394 15.096 58.3728 14.9627 58.8314 14.696C59.3008 14.4187 59.6634 14.0133 59.9194 13.48H62.4954C62.1221 14.6213 61.4661 15.512 60.5274 16.152C59.5994 16.7813 58.5061 17.096 57.2474 17.096C56.1808 17.096 55.2154 16.856 54.3514 16.376C53.4981 15.8853 52.8208 15.208 52.3194 14.344C51.8288 13.48 51.5834 12.4987 51.5834 11.4ZM67.8007 17.144C67.0754 17.144 66.4247 17.016 65.8487 16.76C65.2727 16.4933 64.814 16.136 64.4727 15.688C64.142 15.24 63.9607 14.744 63.9287 14.2H66.1847C66.2274 14.5413 66.3927 14.824 66.6807 15.048C66.9794 15.272 67.3474 15.384 67.7847 15.384C68.2114 15.384 68.542 15.2987 68.7767 15.128C69.022 14.9573 69.1447 14.7387 69.1447 14.472C69.1447 14.184 68.9954 13.9707 68.6967 13.832C68.4087 13.6827 67.9447 13.5227 67.3047 13.352C66.6434 13.192 66.0994 13.0267 65.6727 12.856C65.2567 12.6853 64.894 12.424 64.5847 12.072C64.286 11.72 64.1367 11.2453 64.1367 10.648C64.1367 10.1573 64.2754 9.70933 64.5527 9.304C64.8407 8.89867 65.246 8.57867 65.7687 8.344C66.302 8.10933 66.926 7.992 67.6407 7.992C68.6967 7.992 69.5394 8.25867 70.1687 8.792C70.798 9.31467 71.1447 10.024 71.2087 10.92H69.0647C69.0327 10.568 68.8834 10.2907 68.6167 10.088C68.3607 9.87467 68.014 9.768 67.5767 9.768C67.1714 9.768 66.8567 9.84267 66.6327 9.992C66.4194 10.1413 66.3127 10.3493 66.3127 10.616C66.3127 10.9147 66.462 11.144 66.7607 11.304C67.0594 11.4533 67.5234 11.608 68.1527 11.768C68.7927 11.928 69.3207 12.0933 69.7367 12.264C70.1527 12.4347 70.51 12.7013 70.8087 13.064C71.118 13.416 71.278 13.8853 71.2887 14.472C71.2887 14.984 71.1447 15.4427 70.8567 15.848C70.5794 16.2533 70.174 16.5733 69.6407 16.808C69.118 17.032 68.5047 17.144 67.8007 17.144ZM76.5194 17.144C75.7941 17.144 75.1434 17.016 74.5674 16.76C73.9914 16.4933 73.5328 16.136 73.1914 15.688C72.8608 15.24 72.6794 14.744 72.6474 14.2H74.9034C74.9461 14.5413 75.1114 14.824 75.3994 15.048C75.6981 15.272 76.0661 15.384 76.5034 15.384C76.9301 15.384 77.2608 15.2987 77.4954 15.128C77.7408 14.9573 77.8634 14.7387 77.8634 14.472C77.8634 14.184 77.7141 13.9707 77.4154 13.832C77.1274 13.6827 76.6634 13.5227 76.0234 13.352C75.3621 13.192 74.8181 13.0267 74.3914 12.856C73.9754 12.6853 73.6128 12.424 73.3034 12.072C73.0048 11.72 72.8554 11.2453 72.8554 10.648C72.8554 10.1573 72.9941 9.70933 73.2714 9.304C73.5594 8.89867 73.9648 8.57867 74.4874 8.344C75.0208 8.10933 75.6448 7.992 76.3594 7.992C77.4154 7.992 78.2581 8.25867 78.8874 8.792C79.5168 9.31467 79.8634 10.024 79.9274 10.92H77.7834C77.7514 10.568 77.6021 10.2907 77.3354 10.088C77.0794 9.87467 76.7328 9.768 76.2954 9.768C75.8901 9.768 75.5754 9.84267 75.3514 9.992C75.1381 10.1413 75.0314 10.3493 75.0314 10.616C75.0314 10.9147 75.1808 11.144 75.4794 11.304C75.7781 11.4533 76.2421 11.608 76.8714 11.768C77.5114 11.928 78.0394 12.0933 78.4554 12.264C78.8714 12.4347 79.2288 12.7013 79.5274 13.064C79.8368 13.416 79.9968 13.8853 80.0074 14.472C80.0074 14.984 79.8634 15.4427 79.5754 15.848C79.2981 16.2533 78.8928 16.5733 78.3594 16.808C77.8368 17.032 77.2234 17.144 76.5194 17.144Z" fill="black"/>
</svg>
