<svg width="41" height="41" viewBox="0 0 41 41" fill="none" xmlns="http://www.w3.org/2000/svg">
<path d="M20.2853 12.1723C15.8517 12.1723 12.2736 15.7504 12.2736 20.184C12.2736 24.6176 15.8517 28.1957 20.2853 28.1957C24.7189 28.1957 28.2971 24.6176 28.2971 20.184C28.2971 15.7504 24.7189 12.1723 20.2853 12.1723ZM20.2853 25.3911C17.4182 25.3911 15.0783 23.0512 15.0783 20.184C15.0783 17.3168 17.4182 14.977 20.2853 14.977C23.1525 14.977 25.4924 17.3168 25.4924 20.184C25.4924 23.0512 23.1525 25.3911 20.2853 25.3911ZM28.6252 9.97699C27.59 9.97699 26.7541 10.8129 26.7541 11.8481C26.7541 12.8832 27.59 13.7192 28.6252 13.7192C29.6603 13.7192 30.4963 12.8871 30.4963 11.8481C30.4966 11.6023 30.4484 11.3588 30.3545 11.1317C30.2606 10.9045 30.1227 10.6981 29.9489 10.5243C29.7751 10.3505 29.5687 10.2127 29.3416 10.1188C29.1144 10.0249 28.871 9.97668 28.6252 9.97699V9.97699ZM35.9025 20.184C35.9025 18.0278 35.9221 15.8911 35.801 13.7387C35.6799 11.2387 35.1096 9.01996 33.2814 7.19184C31.4494 5.3598 29.2346 4.7934 26.7346 4.6723C24.5783 4.55121 22.4416 4.57074 20.2892 4.57074C18.133 4.57074 15.9963 4.55121 13.8439 4.6723C11.3439 4.7934 9.12519 5.36371 7.29706 7.19184C5.46503 9.02387 4.89862 11.2387 4.77753 13.7387C4.65644 15.895 4.67597 18.0317 4.67597 20.184C4.67597 22.3364 4.65644 24.477 4.77753 26.6293C4.89862 29.1293 5.46894 31.3481 7.29706 33.1762C9.12909 35.0082 11.3439 35.5746 13.8439 35.6957C16.0002 35.8168 18.1369 35.7973 20.2892 35.7973C22.4455 35.7973 24.5822 35.8168 26.7346 35.6957C29.2346 35.5746 31.4533 35.0043 33.2814 33.1762C35.1135 31.3442 35.6799 29.1293 35.801 26.6293C35.926 24.477 35.9025 22.3403 35.9025 20.184V20.184ZM32.465 29.395C32.1799 30.1059 31.8361 30.6371 31.2853 31.184C30.7346 31.7348 30.2072 32.0786 29.4963 32.3637C27.4416 33.1801 22.5627 32.9965 20.2853 32.9965C18.008 32.9965 13.1252 33.1801 11.0705 32.3676C10.3596 32.0825 9.82831 31.7387 9.28144 31.1879C8.73065 30.6371 8.3869 30.1098 8.10175 29.3989C7.28925 27.3403 7.47284 22.4614 7.47284 20.184C7.47284 17.9067 7.28925 13.0239 8.10175 10.9692C8.3869 10.2582 8.73065 9.72699 9.28144 9.18012C9.83222 8.63324 10.3596 8.28559 11.0705 8.00043C13.1252 7.18793 18.008 7.37152 20.2853 7.37152C22.5627 7.37152 27.4455 7.18793 29.5002 8.00043C30.2111 8.28559 30.7424 8.62934 31.2893 9.18012C31.84 9.7309 32.1838 10.2582 32.4689 10.9692C33.2814 13.0239 33.0978 17.9067 33.0978 20.184C33.0978 22.4614 33.2814 27.3403 32.465 29.395Z" fill="#C422B3" fill-opacity="0.98"/>
</svg>
