<svg width="410" height="50" viewBox="0 0 410 50" fill="none" xmlns="http://www.w3.org/2000/svg">
<rect y="32.7896" width="410" height="17" rx="7" fill="white"/>
<rect x="0.5" y="33.2896" width="409" height="16" rx="6.5" stroke="black" stroke-opacity="0.2"/>
<rect y="32.7896" width="380" height="17" rx="7" fill="#B28998"/>
<rect x="355" width="38" height="24" rx="6" fill="black"/>
<path d="M374 32.0004L386.413 17.0004H361.587L374 32.0004Z" fill="black"/>
<path d="M369.286 12.8736C369.35 13.2256 369.494 13.4976 369.718 13.6896C369.95 13.8736 370.258 13.9656 370.642 13.9656C371.138 13.9656 371.498 13.7616 371.722 13.3536C371.946 12.9376 372.058 12.2416 372.058 11.2656C371.874 11.5216 371.614 11.7216 371.278 11.8656C370.95 12.0096 370.594 12.0816 370.21 12.0816C369.698 12.0816 369.234 11.9776 368.818 11.7696C368.41 11.5536 368.086 11.2376 367.846 10.8216C367.606 10.3976 367.486 9.88562 367.486 9.28562C367.486 8.39762 367.75 7.69362 368.278 7.17362C368.806 6.64562 369.526 6.38162 370.438 6.38162C371.574 6.38162 372.374 6.74562 372.838 7.47362C373.31 8.20162 373.546 9.29762 373.546 10.7616C373.546 11.8016 373.454 12.6536 373.27 13.3176C373.094 13.9816 372.786 14.4856 372.346 14.8296C371.914 15.1736 371.322 15.3456 370.57 15.3456C369.978 15.3456 369.474 15.2336 369.058 15.0096C368.642 14.7776 368.322 14.4776 368.098 14.1096C367.882 13.7336 367.758 13.3216 367.726 12.8736H369.286ZM370.558 10.7136C370.974 10.7136 371.302 10.5856 371.542 10.3296C371.782 10.0736 371.902 9.72962 371.902 9.29762C371.902 8.82562 371.774 8.46162 371.518 8.20562C371.27 7.94162 370.93 7.80962 370.498 7.80962C370.066 7.80962 369.722 7.94562 369.466 8.21762C369.218 8.48162 369.094 8.83362 369.094 9.27362C369.094 9.69762 369.214 10.0456 369.454 10.3176C369.702 10.5816 370.07 10.7136 370.558 10.7136ZM374.853 10.8456C374.853 9.46162 375.101 8.37762 375.597 7.59362C376.101 6.80962 376.933 6.41762 378.093 6.41762C379.253 6.41762 380.081 6.80962 380.577 7.59362C381.081 8.37762 381.333 9.46162 381.333 10.8456C381.333 12.2376 381.081 13.3296 380.577 14.1216C380.081 14.9136 379.253 15.3096 378.093 15.3096C376.933 15.3096 376.101 14.9136 375.597 14.1216C375.101 13.3296 374.853 12.2376 374.853 10.8456ZM379.677 10.8456C379.677 10.2536 379.637 9.75762 379.557 9.35762C379.485 8.94962 379.333 8.61762 379.101 8.36162C378.877 8.10562 378.541 7.97762 378.093 7.97762C377.645 7.97762 377.305 8.10562 377.073 8.36162C376.849 8.61762 376.697 8.94962 376.617 9.35762C376.545 9.75762 376.509 10.2536 376.509 10.8456C376.509 11.4536 376.545 11.9656 376.617 12.3816C376.689 12.7896 376.841 13.1216 377.073 13.3776C377.305 13.6256 377.645 13.7496 378.093 13.7496C378.541 13.7496 378.881 13.6256 379.113 13.3776C379.345 13.1216 379.497 12.7896 379.569 12.3816C379.641 11.9656 379.677 11.4536 379.677 10.8456ZM369.81 24.7336C369.81 24.1256 369.986 23.6496 370.338 23.3056C370.698 22.9616 371.158 22.7896 371.718 22.7896C372.278 22.7896 372.734 22.9616 373.086 23.3056C373.446 23.6496 373.626 24.1256 373.626 24.7336C373.626 25.3496 373.446 25.8296 373.086 26.1736C372.734 26.5176 372.278 26.6896 371.718 26.6896C371.158 26.6896 370.698 26.5176 370.338 26.1736C369.986 25.8296 369.81 25.3496 369.81 24.7336ZM377.514 22.9336L372.798 31.3336H371.166L375.87 22.9336H377.514ZM371.706 23.7976C371.266 23.7976 371.046 24.1096 371.046 24.7336C371.046 25.3656 371.266 25.6816 371.706 25.6816C371.922 25.6816 372.09 25.6056 372.21 25.4536C372.33 25.2936 372.39 25.0536 372.39 24.7336C372.39 24.1096 372.162 23.7976 371.706 23.7976ZM375.078 29.5216C375.078 28.9056 375.254 28.4296 375.606 28.0936C375.966 27.7496 376.426 27.5776 376.986 27.5776C377.546 27.5776 377.998 27.7496 378.342 28.0936C378.694 28.4296 378.87 28.9056 378.87 29.5216C378.87 30.1376 378.694 30.6176 378.342 30.9616C377.998 31.3056 377.546 31.4776 376.986 31.4776C376.418 31.4776 375.958 31.3056 375.606 30.9616C375.254 30.6176 375.078 30.1376 375.078 29.5216ZM376.974 28.5856C376.518 28.5856 376.29 28.8976 376.29 29.5216C376.29 30.1536 376.518 30.4696 376.974 30.4696C377.422 30.4696 377.646 30.1536 377.646 29.5216C377.646 28.8976 377.422 28.5856 376.974 28.5856Z" fill="white"/>
<path d="M11.616 7.62155V15.4616C11.616 16.5496 11.3013 17.3976 10.672 18.0056C10.0427 18.6029 9.2 18.9016 8.144 18.9016C7.07733 18.9016 6.21333 18.5922 5.552 17.9736C4.90133 17.3549 4.576 16.4909 4.576 15.3816H6.816C6.82667 15.8616 6.93867 16.2349 7.152 16.5016C7.376 16.7682 7.696 16.9016 8.112 16.9016C8.51733 16.9016 8.82667 16.7736 9.04 16.5176C9.25333 16.2616 9.36 15.9096 9.36 15.4616V7.62155H11.616ZM13.653 14.3256C13.653 13.4296 13.829 12.6349 14.181 11.9416C14.5437 11.2482 15.029 10.7149 15.637 10.3416C16.2557 9.96822 16.9437 9.78155 17.701 9.78155C18.3623 9.78155 18.9383 9.91488 19.429 10.1816C19.9303 10.4482 20.3303 10.7842 20.629 11.1896V9.92555H22.885V18.7896H20.629V17.4936C20.341 17.9096 19.941 18.2562 19.429 18.5336C18.9277 18.8002 18.3463 18.9336 17.685 18.9336C16.9383 18.9336 16.2557 18.7416 15.637 18.3576C15.029 17.9736 14.5437 17.4349 14.181 16.7416C13.829 16.0376 13.653 15.2322 13.653 14.3256ZM20.629 14.3576C20.629 13.8136 20.5223 13.3496 20.309 12.9656C20.0957 12.5709 19.8077 12.2722 19.445 12.0696C19.0823 11.8562 18.693 11.7496 18.277 11.7496C17.861 11.7496 17.477 11.8509 17.125 12.0536C16.773 12.2562 16.485 12.5549 16.261 12.9496C16.0477 13.3336 15.941 13.7922 15.941 14.3256C15.941 14.8589 16.0477 15.3282 16.261 15.7336C16.485 16.1282 16.773 16.4322 17.125 16.6456C17.4877 16.8589 17.8717 16.9656 18.277 16.9656C18.693 16.9656 19.0823 16.8642 19.445 16.6616C19.8077 16.4482 20.0957 16.1496 20.309 15.7656C20.5223 15.3709 20.629 14.9016 20.629 14.3576ZM28.7688 16.7256L31.0088 9.92555H33.3928L30.1128 18.7896H27.3928L24.1288 9.92555H26.5288L28.7688 16.7256ZM34.0749 14.3256C34.0749 13.4296 34.2509 12.6349 34.6029 11.9416C34.9655 11.2482 35.4509 10.7149 36.0589 10.3416C36.6775 9.96822 37.3655 9.78155 38.1229 9.78155C38.7842 9.78155 39.3602 9.91488 39.8509 10.1816C40.3522 10.4482 40.7522 10.7842 41.0509 11.1896V9.92555H43.3069V18.7896H41.0509V17.4936C40.7629 17.9096 40.3629 18.2562 39.8509 18.5336C39.3495 18.8002 38.7682 18.9336 38.1069 18.9336C37.3602 18.9336 36.6775 18.7416 36.0589 18.3576C35.4509 17.9736 34.9655 17.4349 34.6029 16.7416C34.2509 16.0376 34.0749 15.2322 34.0749 14.3256ZM41.0509 14.3576C41.0509 13.8136 40.9442 13.3496 40.7309 12.9656C40.5175 12.5709 40.2295 12.2722 39.8669 12.0696C39.5042 11.8562 39.1149 11.7496 38.6989 11.7496C38.2829 11.7496 37.8989 11.8509 37.5469 12.0536C37.1949 12.2562 36.9069 12.5549 36.6829 12.9496C36.4695 13.3336 36.3629 13.7922 36.3629 14.3256C36.3629 14.8589 36.4695 15.3282 36.6829 15.7336C36.9069 16.1282 37.1949 16.4322 37.5469 16.6456C37.9095 16.8589 38.2935 16.9656 38.6989 16.9656C39.1149 16.9656 39.5042 16.8642 39.8669 16.6616C40.2295 16.4482 40.5175 16.1496 40.7309 15.7656C40.9442 15.3709 41.0509 14.9016 41.0509 14.3576ZM48.8866 18.9336C48.1613 18.9336 47.5106 18.8056 46.9346 18.5496C46.3586 18.2829 45.9 17.9256 45.5586 17.4776C45.228 17.0296 45.0466 16.5336 45.0146 15.9896H47.2706C47.3133 16.3309 47.4786 16.6136 47.7666 16.8376C48.0653 17.0616 48.4333 17.1736 48.8706 17.1736C49.2973 17.1736 49.628 17.0882 49.8626 16.9176C50.108 16.7469 50.2306 16.5282 50.2306 16.2616C50.2306 15.9736 50.0813 15.7602 49.7826 15.6216C49.4946 15.4722 49.0306 15.3122 48.3906 15.1416C47.7293 14.9816 47.1853 14.8162 46.7586 14.6456C46.3426 14.4749 45.98 14.2136 45.6706 13.8616C45.372 13.5096 45.2226 13.0349 45.2226 12.4376C45.2226 11.9469 45.3613 11.4989 45.6386 11.0936C45.9266 10.6882 46.332 10.3682 46.8546 10.1336C47.388 9.89888 48.012 9.78155 48.7266 9.78155C49.7826 9.78155 50.6253 10.0482 51.2546 10.5816C51.884 11.1042 52.2306 11.8136 52.2946 12.7096H50.1506C50.1186 12.3576 49.9693 12.0802 49.7026 11.8776C49.4466 11.6642 49.1 11.5576 48.6626 11.5576C48.2573 11.5576 47.9426 11.6322 47.7186 11.7816C47.5053 11.9309 47.3986 12.1389 47.3986 12.4056C47.3986 12.7042 47.548 12.9336 47.8466 13.0936C48.1453 13.2429 48.6093 13.3976 49.2386 13.5576C49.8786 13.7176 50.4066 13.8829 50.8226 14.0536C51.2386 14.2242 51.596 14.4909 51.8946 14.8536C52.204 15.2056 52.364 15.6749 52.3746 16.2616C52.3746 16.7736 52.2306 17.2322 51.9426 17.6376C51.6653 18.0429 51.26 18.3629 50.7266 18.5976C50.204 18.8216 49.5906 18.9336 48.8866 18.9336ZM53.6374 14.3576C53.6374 13.4402 53.824 12.6402 54.1974 11.9576C54.5707 11.2642 55.088 10.7309 55.7494 10.3576C56.4107 9.97355 57.168 9.78155 58.0214 9.78155C59.12 9.78155 60.0267 10.0589 60.7414 10.6136C61.4667 11.1576 61.952 11.9256 62.1974 12.9176H59.7814C59.6534 12.5336 59.4347 12.2349 59.1254 12.0216C58.8267 11.7976 58.4534 11.6856 58.0054 11.6856C57.3654 11.6856 56.8587 11.9202 56.4854 12.3896C56.112 12.8482 55.9254 13.5042 55.9254 14.3576C55.9254 15.2002 56.112 15.8562 56.4854 16.3256C56.8587 16.7842 57.3654 17.0136 58.0054 17.0136C58.912 17.0136 59.504 16.6082 59.7814 15.7976H62.1974C61.952 16.7576 61.4667 17.5202 60.7414 18.0856C60.016 18.6509 59.1094 18.9336 58.0214 18.9336C57.168 18.9336 56.4107 18.7469 55.7494 18.3736C55.088 17.9896 54.5707 17.4562 54.1974 16.7736C53.824 16.0802 53.6374 15.2749 53.6374 14.3576ZM66.0784 11.3016C66.3664 10.8322 66.7397 10.4642 67.1984 10.1976C67.6677 9.93088 68.201 9.79755 68.7984 9.79755V12.1496H68.2064C67.5024 12.1496 66.969 12.3149 66.6064 12.6456C66.2544 12.9762 66.0784 13.5522 66.0784 14.3736V18.7896H63.8384V9.92555H66.0784V11.3016ZM71.4431 8.86955C71.0485 8.86955 70.7178 8.74688 70.4511 8.50155C70.1951 8.24555 70.0671 7.93088 70.0671 7.55755C70.0671 7.18422 70.1951 6.87488 70.4511 6.62955C70.7178 6.37355 71.0485 6.24555 71.4431 6.24555C71.8378 6.24555 72.1631 6.37355 72.4191 6.62955C72.6858 6.87488 72.8191 7.18422 72.8191 7.55755C72.8191 7.93088 72.6858 8.24555 72.4191 8.50155C72.1631 8.74688 71.8378 8.86955 71.4431 8.86955ZM72.5471 9.92555V18.7896H70.3071V9.92555H72.5471ZM77.0003 11.2056C77.2883 10.8002 77.6829 10.4642 78.1843 10.1976C78.6963 9.92022 79.2776 9.78155 79.9283 9.78155C80.6856 9.78155 81.3683 9.96822 81.9763 10.3416C82.5949 10.7149 83.0803 11.2482 83.4323 11.9416C83.7949 12.6242 83.9763 13.4189 83.9763 14.3256C83.9763 15.2322 83.7949 16.0376 83.4323 16.7416C83.0803 17.4349 82.5949 17.9736 81.9763 18.3576C81.3683 18.7416 80.6856 18.9336 79.9283 18.9336C79.2776 18.9336 78.7016 18.8002 78.2003 18.5336C77.7096 18.2669 77.3096 17.9309 77.0003 17.5256V23.0136H74.7603V9.92555H77.0003V11.2056ZM81.6883 14.3256C81.6883 13.7922 81.5763 13.3336 81.3523 12.9496C81.1389 12.5549 80.8509 12.2562 80.4883 12.0536C80.1363 11.8509 79.7523 11.7496 79.3363 11.7496C78.9309 11.7496 78.5469 11.8562 78.1843 12.0696C77.8323 12.2722 77.5443 12.5709 77.3203 12.9656C77.1069 13.3602 77.0003 13.8242 77.0003 14.3576C77.0003 14.8909 77.1069 15.3549 77.3203 15.7496C77.5443 16.1442 77.8323 16.4482 78.1843 16.6616C78.5469 16.8642 78.9309 16.9656 79.3363 16.9656C79.7523 16.9656 80.1363 16.8589 80.4883 16.6456C80.8509 16.4322 81.1389 16.1282 81.3523 15.7336C81.5763 15.3389 81.6883 14.8696 81.6883 14.3256ZM88.212 11.7656V16.0536C88.212 16.3522 88.2813 16.5709 88.42 16.7096C88.5693 16.8376 88.8147 16.9016 89.156 16.9016H90.196V18.7896H88.788C86.9 18.7896 85.956 17.8722 85.956 16.0376V11.7656H84.9V9.92555H85.956V7.73355H88.212V9.92555H90.196V11.7656H88.212Z" fill="black"/>
</svg>
