<svg width="30" height="30" viewBox="0 0 30 30" fill="none" xmlns="http://www.w3.org/2000/svg">
<path d="M27.4487 17.1487V26.3725H22.1012V17.7663C22.1012 15.6038 21.3275 14.1288 19.3925 14.1288C17.915 14.1288 17.035 15.1238 16.6488 16.085C16.5075 16.4287 16.4713 16.9075 16.4713 17.3888V26.3725H11.1213C11.1213 26.3725 11.1938 11.7975 11.1213 10.2863H16.4713V12.5663L16.4363 12.6188H16.4713V12.5663C17.1813 11.4725 18.45 9.90875 21.2913 9.90875C24.81 9.90875 27.4487 12.2088 27.4487 17.1487V17.1487ZM5.52625 2.5325C3.6975 2.5325 2.5 3.7325 2.5 5.31125C2.5 6.855 3.6625 8.09125 5.45625 8.09125H5.49125C7.3575 8.09125 8.51625 6.855 8.51625 5.31125C8.48375 3.7325 7.35875 2.5325 5.5275 2.5325H5.52625ZM2.8175 26.3725H8.165V10.2863H2.8175V26.3725Z" fill="#144950" fill-opacity="0.65"/>
</svg>
