<svg width="34" height="33" viewBox="0 0 34 33" fill="none" xmlns="http://www.w3.org/2000/svg">
<path d="M33.5983 19.865V32.1633H26.4683V20.6883C26.4683 17.805 25.4366 15.8383 22.8566 15.8383C20.8866 15.8383 19.7133 17.165 19.1983 18.4467C19.01 18.905 18.9616 19.5433 18.9616 20.185V32.1633H11.8283C11.8283 32.1633 11.925 12.73 11.8283 10.715H18.9616V13.755L18.915 13.825H18.9616V13.755C19.9083 12.2967 21.6 10.2117 25.3883 10.2117C30.08 10.2117 33.5983 13.2783 33.5983 19.865V19.865ZM4.36831 0.376678C1.92998 0.376678 0.333313 1.97668 0.333313 4.08168C0.333313 6.14001 1.88331 7.78835 4.27498 7.78835H4.32165C6.80998 7.78835 8.35498 6.14001 8.35498 4.08168C8.31165 1.97668 6.81165 0.376678 4.36998 0.376678H4.36831ZM0.756646 32.1633H7.88665V10.715H0.756646V32.1633Z" fill="#6563FF"/>
</svg>
