<svg width="410" height="50" viewBox="0 0 410 50" fill="none" xmlns="http://www.w3.org/2000/svg">
<rect y="32.7896" width="410" height="17" rx="7" fill="#7FB5BC" fill-opacity="0.1"/>
<rect x="0.5" y="33.2896" width="409" height="16" rx="6.5" stroke="black" stroke-opacity="0.2"/>
<rect y="33" width="311" height="17" rx="7" fill="#B28998"/>
<rect x="288" width="38" height="24" rx="6" fill="black"/>
<path d="M307 32.0004L319.413 17.0004H294.587L307 32.0004Z" fill="black"/>
<path d="M301.791 7.89374L298.551 15.3337H296.751L300.111 8.07374H296.007V6.64574H301.791V7.89374ZM306.037 6.60974C303.877 6.60974 302.797 8.05774 302.797 10.9537C302.797 13.8577 303.877 15.3097 306.037 15.3097C308.197 15.3097 309.277 13.8577 309.277 10.9537C309.277 8.05774 308.197 6.60974 306.037 6.60974ZM306.037 8.16974C306.485 8.16974 306.821 8.29374 307.045 8.54174C307.277 8.78974 307.429 9.11374 307.501 9.51374C307.581 9.90574 307.621 10.3857 307.621 10.9537C307.621 11.5217 307.581 12.0057 307.501 12.4057C307.429 12.8057 307.277 13.1297 307.045 13.3777C306.821 13.6257 306.485 13.7497 306.037 13.7497C305.589 13.7497 305.249 13.6257 305.017 13.3777C304.793 13.1297 304.641 12.8057 304.561 12.4057C304.489 12.0057 304.453 11.5217 304.453 10.9537C304.453 10.3857 304.489 9.90574 304.561 9.51374C304.641 9.11374 304.793 8.78974 305.017 8.54174C305.249 8.29374 305.589 8.16974 306.037 8.16974ZM310.351 8.73374C310.351 8.13374 310.527 7.66574 310.879 7.32974C311.239 6.98574 311.699 6.81374 312.259 6.81374C312.819 6.81374 313.275 6.98574 313.627 7.32974C313.987 7.66574 314.167 8.13374 314.167 8.73374C314.167 9.33374 313.987 9.80574 313.627 10.1497C313.275 10.4937 312.819 10.6657 312.259 10.6657C311.699 10.6657 311.239 10.4937 310.879 10.1497C310.527 9.80574 310.351 9.33374 310.351 8.73374ZM317.683 6.93374L312.967 15.3337H311.335L316.039 6.93374H317.683ZM312.247 7.82174C311.807 7.82174 311.587 8.12574 311.587 8.73374C311.587 9.04574 311.643 9.27774 311.755 9.42974C311.875 9.58174 312.039 9.65774 312.247 9.65774C312.463 9.65774 312.631 9.58174 312.751 9.42974C312.871 9.27774 312.931 9.04574 312.931 8.73374C312.931 8.12574 312.703 7.82174 312.247 7.82174ZM314.863 13.5217C314.863 12.9217 315.039 12.4537 315.391 12.1177C315.751 11.7817 316.211 11.6137 316.771 11.6137C317.331 11.6137 317.787 11.7817 318.139 12.1177C318.491 12.4537 318.667 12.9217 318.667 13.5217C318.667 14.1297 318.491 14.6057 318.139 14.9497C317.787 15.2857 317.331 15.4537 316.771 15.4537C316.211 15.4537 315.751 15.2857 315.391 14.9497C315.039 14.6057 314.863 14.1297 314.863 13.5217ZM316.759 12.6097C316.551 12.6097 316.387 12.6857 316.267 12.8377C316.147 12.9897 316.087 13.2177 316.087 13.5217C316.087 13.8337 316.147 14.0657 316.267 14.2177C316.387 14.3697 316.551 14.4457 316.759 14.4457C316.967 14.4457 317.131 14.3697 317.251 14.2177C317.371 14.0657 317.431 13.8337 317.431 13.5217C317.431 13.2177 317.371 12.9897 317.251 12.8377C317.131 12.6857 316.967 12.6097 316.759 12.6097Z" fill="white"/>
<path d="M10.864 18.7896L8.4 14.4376H7.344V18.7896H5.104V7.62155H9.296C10.16 7.62155 10.896 7.77622 11.504 8.08555C12.112 8.38422 12.5653 8.79488 12.864 9.31755C13.1733 9.82955 13.328 10.4056 13.328 11.0456C13.328 11.7816 13.1147 12.4482 12.688 13.0456C12.2613 13.6322 11.6267 14.0376 10.784 14.2616L13.456 18.7896H10.864ZM7.344 12.7736H9.216C9.824 12.7736 10.2773 12.6242 10.576 12.3256C10.8747 12.0269 11.024 11.6162 11.024 11.0936C11.024 10.5709 10.8747 10.1656 10.576 9.87755C10.2773 9.57888 9.824 9.42955 9.216 9.42955H7.344V12.7736ZM23.594 14.1496C23.594 14.4482 23.5727 14.7256 23.53 14.9816H17.05C17.0927 15.6322 17.3113 16.1442 17.706 16.5176C18.1007 16.8909 18.5913 17.0776 19.178 17.0776C20.01 17.0776 20.602 16.7202 20.954 16.0056H23.37C23.114 16.8589 22.6233 17.5629 21.898 18.1176C21.1727 18.6616 20.282 18.9336 19.226 18.9336C18.3727 18.9336 17.6047 18.7469 16.922 18.3736C16.25 17.9896 15.722 17.4509 15.338 16.7576C14.9647 16.0642 14.778 15.2642 14.778 14.3576C14.778 13.4402 14.9647 12.6349 15.338 11.9416C15.7113 11.2482 16.234 10.7149 16.906 10.3416C17.578 9.96822 18.3513 9.78155 19.226 9.78155C20.0687 9.78155 20.8207 9.96288 21.482 10.3256C22.154 10.6882 22.6713 11.2002 23.034 11.8616C23.4073 12.5229 23.594 13.2856 23.594 14.1496ZM21.274 13.6216C21.2633 13.0029 21.0553 12.5176 20.65 12.1656C20.2553 11.8029 19.7593 11.6216 19.162 11.6216C18.5967 11.6216 18.122 11.8029 17.738 12.1656C17.354 12.5176 17.1247 13.0029 17.05 13.6216H21.274ZM24.653 14.3256C24.653 13.4296 24.829 12.6349 25.181 11.9416C25.5437 11.2482 26.029 10.7149 26.637 10.3416C27.2557 9.96822 27.9437 9.78155 28.701 9.78155C29.3623 9.78155 29.9383 9.91488 30.429 10.1816C30.9303 10.4482 31.3303 10.7842 31.629 11.1896V9.92555H33.885V18.7896H31.629V17.4936C31.341 17.9096 30.941 18.2562 30.429 18.5336C29.9277 18.8002 29.3463 18.9336 28.685 18.9336C27.9383 18.9336 27.2557 18.7416 26.637 18.3576C26.029 17.9736 25.5437 17.4349 25.181 16.7416C24.829 16.0376 24.653 15.2322 24.653 14.3256ZM31.629 14.3576C31.629 13.8136 31.5223 13.3496 31.309 12.9656C31.0957 12.5709 30.8077 12.2722 30.445 12.0696C30.0823 11.8562 29.693 11.7496 29.277 11.7496C28.861 11.7496 28.477 11.8509 28.125 12.0536C27.773 12.2562 27.485 12.5549 27.261 12.9496C27.0477 13.3336 26.941 13.7922 26.941 14.3256C26.941 14.8589 27.0477 15.3282 27.261 15.7336C27.485 16.1282 27.773 16.4322 28.125 16.6456C28.4877 16.8589 28.8717 16.9656 29.277 16.9656C29.693 16.9656 30.0823 16.8642 30.445 16.6616C30.8077 16.4482 31.0957 16.1496 31.309 15.7656C31.5223 15.3709 31.629 14.9016 31.629 14.3576ZM35.4967 14.3576C35.4967 13.4402 35.6834 12.6402 36.0568 11.9576C36.4301 11.2642 36.9474 10.7309 37.6088 10.3576C38.2701 9.97355 39.0274 9.78155 39.8808 9.78155C40.9794 9.78155 41.8861 10.0589 42.6008 10.6136C43.3261 11.1576 43.8114 11.9256 44.0568 12.9176H41.6408C41.5128 12.5336 41.2941 12.2349 40.9848 12.0216C40.6861 11.7976 40.3128 11.6856 39.8648 11.6856C39.2248 11.6856 38.7181 11.9202 38.3448 12.3896C37.9714 12.8482 37.7848 13.5042 37.7848 14.3576C37.7848 15.2002 37.9714 15.8562 38.3448 16.3256C38.7181 16.7842 39.2248 17.0136 39.8648 17.0136C40.7714 17.0136 41.3634 16.6082 41.6408 15.7976H44.0568C43.8114 16.7576 43.3261 17.5202 42.6008 18.0856C41.8754 18.6509 40.9688 18.9336 39.8808 18.9336C39.0274 18.9336 38.2701 18.7469 37.6088 18.3736C36.9474 17.9896 36.4301 17.4562 36.0568 16.7736C35.6834 16.0802 35.4967 15.2749 35.4967 14.3576ZM48.3058 11.7656V16.0536C48.3058 16.3522 48.3751 16.5709 48.5138 16.7096C48.6631 16.8376 48.9084 16.9016 49.2498 16.9016H50.2898V18.7896H48.8818C46.9938 18.7896 46.0498 17.8722 46.0498 16.0376V11.7656H44.9938V9.92555H46.0498V7.73355H48.3058V9.92555H50.2898V11.7656H48.3058ZM62.6941 7.62155V15.4616C62.6941 16.5496 62.3795 17.3976 61.7501 18.0056C61.1208 18.6029 60.2781 18.9016 59.2221 18.9016C58.1555 18.9016 57.2915 18.5922 56.6301 17.9736C55.9795 17.3549 55.6541 16.4909 55.6541 15.3816H57.8941C57.9048 15.8616 58.0168 16.2349 58.2301 16.5016C58.4541 16.7682 58.7741 16.9016 59.1901 16.9016C59.5955 16.9016 59.9048 16.7736 60.1181 16.5176C60.3315 16.2616 60.4381 15.9096 60.4381 15.4616V7.62155H62.6941ZM68.6831 18.9336C67.9578 18.9336 67.3071 18.8056 66.7311 18.5496C66.1658 18.2829 65.7125 17.9256 65.3711 17.4776C65.0405 17.0296 64.8591 16.5336 64.8271 15.9896H67.0831C67.1258 16.3629 67.2911 16.6669 67.5791 16.9016C67.8671 17.1256 68.2351 17.2376 68.6831 17.2376C69.1098 17.2376 69.4405 17.1522 69.6751 16.9816C69.9205 16.8002 70.0431 16.5602 70.0431 16.2616C70.0431 15.9736 69.8938 15.7549 69.5951 15.6056C69.3071 15.4562 68.8378 15.3016 68.1871 15.1416C67.5365 14.9816 67.0031 14.8216 66.5871 14.6616C66.1711 14.4909 65.8138 14.2296 65.5151 13.8776C65.2165 13.5256 65.0671 13.0616 65.0671 12.4856C65.0671 11.9842 65.2005 11.5309 65.4671 11.1256C65.7445 10.7096 66.1445 10.3842 66.6671 10.1496C67.2005 9.90422 67.8245 9.78155 68.5391 9.78155C69.5951 9.78155 70.4378 10.0482 71.0671 10.5816C71.6965 11.1042 72.0431 11.8136 72.1071 12.7096H69.9631C69.9311 12.3362 69.7818 12.0376 69.5151 11.8136C69.2591 11.5896 68.9125 11.4776 68.4751 11.4776C68.0698 11.4776 67.7551 11.5629 67.5311 11.7336C67.3178 11.8936 67.2111 12.1176 67.2111 12.4056C67.2111 12.7042 67.3605 12.9336 67.6591 13.0936C67.9578 13.2429 68.4218 13.3976 69.0511 13.5576C69.6911 13.7176 70.2191 13.8829 70.6351 14.0536C71.0511 14.2242 71.4085 14.4856 71.7071 14.8376C72.0058 15.1789 72.1551 15.6429 72.1551 16.2296C72.1551 16.7416 72.0165 17.2056 71.7391 17.6216C71.4618 18.0269 71.0618 18.3469 70.5391 18.5816C70.0165 18.8162 69.3978 18.9336 68.6831 18.9336Z" fill="black"/>
</svg>
