<svg width="40" height="40" viewBox="0 0 40 40" fill="none" xmlns="http://www.w3.org/2000/svg">
<path d="M35.3861 40H35.1247C4.90421 38.2615 0.613367 12.7538 0.0135715 4.96923C-0.0801716 3.74884 0.31452 2.54118 1.11083 1.61188C1.90714 0.682585 3.03985 0.107761 4.25981 0.0138477C4.38182 0.00461692 4.50435 1.44245e-06 4.62738 1.44245e-06H12.7323C13.3483 -0.000595117 13.9504 0.183862 14.4604 0.529481C14.9704 0.8751 15.3649 1.36595 15.5929 1.93846L17.9305 7.69231C18.1556 8.25161 18.2115 8.86474 18.0912 9.45553C17.9709 10.0463 17.6797 10.5887 17.2538 11.0154L13.978 14.3231C14.4877 17.2328 15.8795 19.9154 17.9649 22.0069C20.0502 24.0985 22.7282 25.4979 25.6356 26.0154L28.9729 22.7077C29.4058 22.2864 29.9532 22.0019 30.5467 21.8898C31.1401 21.7776 31.7535 21.8427 32.3102 22.0769L38.1083 24.4C38.6719 24.6352 39.1529 25.033 39.4898 25.5426C39.8266 26.0522 40.0042 26.6506 39.9999 27.2615V35.3846C39.9999 36.6087 39.5138 37.7826 38.6486 38.6482C37.7833 39.5137 36.6098 40 35.3861 40ZM4.62738 3.07692C4.42542 3.07632 4.22531 3.11551 4.03849 3.19226C3.85166 3.26902 3.68178 3.38183 3.53854 3.52426C3.3953 3.66669 3.28151 3.83595 3.20366 4.02238C3.12582 4.2088 3.08544 4.40874 3.08483 4.61077C3.08483 4.65385 3.08637 4.69641 3.08944 4.73846C3.7969 13.8462 8.33381 35.3846 35.2938 36.9231C35.7009 36.9475 36.101 36.8092 36.4061 36.5386C36.7112 36.2679 36.8964 35.8872 36.921 35.48L36.9241 35.3846V27.2615L31.126 24.9385L26.7122 29.3231L25.9739 29.2308C12.5939 27.5538 10.7791 14.1692 10.7791 14.0308L10.6869 13.2923L15.0546 8.87693L12.7477 3.07692H4.62738Z" fill="#7FB5BC" fill-opacity="0.95"/>
</svg>
