<svg width="410" height="50" viewBox="0 0 410 50" fill="none" xmlns="http://www.w3.org/2000/svg">
<rect y="32.7896" width="410" height="17" rx="7" fill="#7FB5BC" fill-opacity="0.04"/>
<rect x="0.5" y="33.2896" width="409" height="16" rx="6.5" stroke="black" stroke-opacity="0.2"/>
<rect y="32.7896" width="380" height="17" rx="7" fill="#B28998"/>
<rect x="355" width="38" height="24" rx="6" fill="black"/>
<path d="M374 32.0004L386.413 17.0004H361.587L374 32.0004Z" fill="black"/>
<path d="M369.286 12.8736C369.35 13.2256 369.494 13.4976 369.718 13.6896C369.95 13.8736 370.258 13.9656 370.642 13.9656C371.138 13.9656 371.498 13.7616 371.722 13.3536C371.946 12.9376 372.058 12.2416 372.058 11.2656C371.874 11.5216 371.614 11.7216 371.278 11.8656C370.95 12.0096 370.594 12.0816 370.21 12.0816C369.698 12.0816 369.234 11.9776 368.818 11.7696C368.41 11.5536 368.086 11.2376 367.846 10.8216C367.606 10.3976 367.486 9.88562 367.486 9.28562C367.486 8.39762 367.75 7.69362 368.278 7.17362C368.806 6.64562 369.526 6.38162 370.438 6.38162C371.574 6.38162 372.374 6.74562 372.838 7.47362C373.31 8.20162 373.546 9.29762 373.546 10.7616C373.546 11.8016 373.454 12.6536 373.27 13.3176C373.094 13.9816 372.786 14.4856 372.346 14.8296C371.914 15.1736 371.322 15.3456 370.57 15.3456C369.978 15.3456 369.474 15.2336 369.058 15.0096C368.642 14.7776 368.322 14.4776 368.098 14.1096C367.882 13.7336 367.758 13.3216 367.726 12.8736H369.286ZM370.558 10.7136C370.974 10.7136 371.302 10.5856 371.542 10.3296C371.782 10.0736 371.902 9.72962 371.902 9.29762C371.902 8.82562 371.774 8.46162 371.518 8.20562C371.27 7.94162 370.93 7.80962 370.498 7.80962C370.066 7.80962 369.722 7.94562 369.466 8.21762C369.218 8.48162 369.094 8.83362 369.094 9.27362C369.094 9.69762 369.214 10.0456 369.454 10.3176C369.702 10.5816 370.07 10.7136 370.558 10.7136ZM374.853 10.8456C374.853 9.46162 375.101 8.37762 375.597 7.59362C376.101 6.80962 376.933 6.41762 378.093 6.41762C379.253 6.41762 380.081 6.80962 380.577 7.59362C381.081 8.37762 381.333 9.46162 381.333 10.8456C381.333 12.2376 381.081 13.3296 380.577 14.1216C380.081 14.9136 379.253 15.3096 378.093 15.3096C376.933 15.3096 376.101 14.9136 375.597 14.1216C375.101 13.3296 374.853 12.2376 374.853 10.8456ZM379.677 10.8456C379.677 10.2536 379.637 9.75762 379.557 9.35762C379.485 8.94962 379.333 8.61762 379.101 8.36162C378.877 8.10562 378.541 7.97762 378.093 7.97762C377.645 7.97762 377.305 8.10562 377.073 8.36162C376.849 8.61762 376.697 8.94962 376.617 9.35762C376.545 9.75762 376.509 10.2536 376.509 10.8456C376.509 11.4536 376.545 11.9656 376.617 12.3816C376.689 12.7896 376.841 13.1216 377.073 13.3776C377.305 13.6256 377.645 13.7496 378.093 13.7496C378.541 13.7496 378.881 13.6256 379.113 13.3776C379.345 13.1216 379.497 12.7896 379.569 12.3816C379.641 11.9656 379.677 11.4536 379.677 10.8456ZM369.81 24.7336C369.81 24.1256 369.986 23.6496 370.338 23.3056C370.698 22.9616 371.158 22.7896 371.718 22.7896C372.278 22.7896 372.734 22.9616 373.086 23.3056C373.446 23.6496 373.626 24.1256 373.626 24.7336C373.626 25.3496 373.446 25.8296 373.086 26.1736C372.734 26.5176 372.278 26.6896 371.718 26.6896C371.158 26.6896 370.698 26.5176 370.338 26.1736C369.986 25.8296 369.81 25.3496 369.81 24.7336ZM377.514 22.9336L372.798 31.3336H371.166L375.87 22.9336H377.514ZM371.706 23.7976C371.266 23.7976 371.046 24.1096 371.046 24.7336C371.046 25.3656 371.266 25.6816 371.706 25.6816C371.922 25.6816 372.09 25.6056 372.21 25.4536C372.33 25.2936 372.39 25.0536 372.39 24.7336C372.39 24.1096 372.162 23.7976 371.706 23.7976ZM375.078 29.5216C375.078 28.9056 375.254 28.4296 375.606 28.0936C375.966 27.7496 376.426 27.5776 376.986 27.5776C377.546 27.5776 377.998 27.7496 378.342 28.0936C378.694 28.4296 378.87 28.9056 378.87 29.5216C378.87 30.1376 378.694 30.6176 378.342 30.9616C377.998 31.3056 377.546 31.4776 376.986 31.4776C376.418 31.4776 375.958 31.3056 375.606 30.9616C375.254 30.6176 375.078 30.1376 375.078 29.5216ZM376.974 28.5856C376.518 28.5856 376.29 28.8976 376.29 29.5216C376.29 30.1536 376.518 30.4696 376.974 30.4696C377.422 30.4696 377.646 30.1536 377.646 29.5216C377.646 28.8976 377.422 28.5856 376.974 28.5856Z" fill="white"/>
<path d="M20.2664 7.62155L17.1464 18.7896H14.5064L12.4104 10.8376L10.2184 18.7896L7.59438 18.8056L4.58638 7.62155H6.98638L8.95438 16.2936L11.2264 7.62155H13.7224L15.8664 16.2456L17.8504 7.62155H20.2664ZM25.665 18.9336C24.8117 18.9336 24.0437 18.7469 23.361 18.3736C22.6783 17.9896 22.1397 17.4509 21.745 16.7576C21.361 16.0642 21.169 15.2642 21.169 14.3576C21.169 13.4509 21.3663 12.6509 21.761 11.9576C22.1663 11.2642 22.7157 10.7309 23.409 10.3576C24.1023 9.97355 24.8757 9.78155 25.729 9.78155C26.5823 9.78155 27.3557 9.97355 28.049 10.3576C28.7423 10.7309 29.2863 11.2642 29.681 11.9576C30.0863 12.6509 30.289 13.4509 30.289 14.3576C30.289 15.2642 30.081 16.0642 29.665 16.7576C29.2597 17.4509 28.705 17.9896 28.001 18.3736C27.3077 18.7469 26.529 18.9336 25.665 18.9336ZM25.665 16.9816C26.0703 16.9816 26.449 16.8856 26.801 16.6936C27.1637 16.4909 27.4517 16.1922 27.665 15.7976C27.8783 15.4029 27.985 14.9229 27.985 14.3576C27.985 13.5149 27.761 12.8696 27.313 12.4216C26.8757 11.9629 26.337 11.7336 25.697 11.7336C25.057 11.7336 24.5183 11.9629 24.081 12.4216C23.6543 12.8696 23.441 13.5149 23.441 14.3576C23.441 15.2002 23.649 15.8509 24.065 16.3096C24.4917 16.7576 25.025 16.9816 25.665 16.9816ZM34.1721 11.3016C34.4601 10.8322 34.8335 10.4642 35.2921 10.1976C35.7615 9.93088 36.2948 9.79755 36.8921 9.79755V12.1496H36.3001C35.5961 12.1496 35.0628 12.3149 34.7001 12.6456C34.3481 12.9762 34.1721 13.5522 34.1721 14.3736V18.7896H31.9321V9.92555H34.1721V11.3016ZM37.8249 14.3256C37.8249 13.4296 38.0009 12.6349 38.3529 11.9416C38.7155 11.2482 39.2062 10.7149 39.8249 10.3416C40.4435 9.96822 41.1315 9.78155 41.8889 9.78155C42.4649 9.78155 43.0142 9.90955 43.5369 10.1656C44.0595 10.4109 44.4755 10.7416 44.7849 11.1576V6.94955H47.0569V18.7896H44.7849V17.4776C44.5075 17.9149 44.1182 18.2669 43.6169 18.5336C43.1155 18.8002 42.5342 18.9336 41.8729 18.9336C41.1262 18.9336 40.4435 18.7416 39.8249 18.3576C39.2062 17.9736 38.7155 17.4349 38.3529 16.7416C38.0009 16.0376 37.8249 15.2322 37.8249 14.3256ZM44.8009 14.3576C44.8009 13.8136 44.6942 13.3496 44.4809 12.9656C44.2675 12.5709 43.9795 12.2722 43.6169 12.0696C43.2542 11.8562 42.8649 11.7496 42.4489 11.7496C42.0329 11.7496 41.6489 11.8509 41.2969 12.0536C40.9449 12.2562 40.6569 12.5549 40.4329 12.9496C40.2195 13.3336 40.1129 13.7922 40.1129 14.3256C40.1129 14.8589 40.2195 15.3282 40.4329 15.7336C40.6569 16.1282 40.9449 16.4322 41.2969 16.6456C41.6595 16.8589 42.0435 16.9656 42.4489 16.9656C42.8649 16.9656 43.2542 16.8642 43.6169 16.6616C43.9795 16.4482 44.2675 16.1496 44.4809 15.7656C44.6942 15.3709 44.8009 14.9016 44.8009 14.3576ZM51.4846 11.2056C51.7726 10.8002 52.1673 10.4642 52.6686 10.1976C53.1806 9.92022 53.762 9.78155 54.4126 9.78155C55.17 9.78155 55.8526 9.96822 56.4606 10.3416C57.0793 10.7149 57.5646 11.2482 57.9166 11.9416C58.2793 12.6242 58.4606 13.4189 58.4606 14.3256C58.4606 15.2322 58.2793 16.0376 57.9166 16.7416C57.5646 17.4349 57.0793 17.9736 56.4606 18.3576C55.8526 18.7416 55.17 18.9336 54.4126 18.9336C53.762 18.9336 53.186 18.8002 52.6846 18.5336C52.194 18.2669 51.794 17.9309 51.4846 17.5256V23.0136H49.2446V9.92555H51.4846V11.2056ZM56.1726 14.3256C56.1726 13.7922 56.0606 13.3336 55.8366 12.9496C55.6233 12.5549 55.3353 12.2562 54.9726 12.0536C54.6206 11.8509 54.2366 11.7496 53.8206 11.7496C53.4153 11.7496 53.0313 11.8562 52.6686 12.0696C52.3166 12.2722 52.0286 12.5709 51.8046 12.9656C51.5913 13.3602 51.4846 13.8242 51.4846 14.3576C51.4846 14.8909 51.5913 15.3549 51.8046 15.7496C52.0286 16.1442 52.3166 16.4482 52.6686 16.6616C53.0313 16.8642 53.4153 16.9656 53.8206 16.9656C54.2366 16.9656 54.6206 16.8589 54.9726 16.6456C55.3353 16.4322 55.6233 16.1282 55.8366 15.7336C56.0606 15.3389 56.1726 14.8696 56.1726 14.3256ZM62.3284 11.3016C62.6164 10.8322 62.9897 10.4642 63.4484 10.1976C63.9177 9.93088 64.451 9.79755 65.0484 9.79755V12.1496H64.4564C63.7524 12.1496 63.219 12.3149 62.8564 12.6456C62.5044 12.9762 62.3284 13.5522 62.3284 14.3736V18.7896H60.0884V9.92555H62.3284V11.3016ZM74.7971 14.1656C74.7971 14.4856 74.7758 14.7736 74.7331 15.0296H68.2531C68.3065 15.6696 68.5305 16.1709 68.9251 16.5336C69.3198 16.8962 69.8051 17.0776 70.3811 17.0776C71.2131 17.0776 71.8051 16.7202 72.1571 16.0056H74.5731C74.3171 16.8589 73.8265 17.5629 73.1011 18.1176C72.3758 18.6616 71.4851 18.9336 70.4291 18.9336C69.5758 18.9336 68.8078 18.7469 68.1251 18.3736C67.4531 17.9896 66.9251 17.4509 66.5411 16.7576C66.1678 16.0642 65.9811 15.2642 65.9811 14.3576C65.9811 13.4402 66.1678 12.6349 66.5411 11.9416C66.9145 11.2482 67.4371 10.7149 68.1091 10.3416C68.7811 9.96822 69.5545 9.78155 70.4291 9.78155C71.2718 9.78155 72.0238 9.96288 72.6851 10.3256C73.3571 10.6882 73.8745 11.2056 74.2371 11.8776C74.6105 12.5389 74.7971 13.3016 74.7971 14.1656ZM72.4771 13.5256C72.4665 12.9496 72.2585 12.4909 71.8531 12.1496C71.4478 11.7976 70.9518 11.6216 70.3651 11.6216C69.8105 11.6216 69.3411 11.7922 68.9571 12.1336C68.5838 12.4642 68.3545 12.9282 68.2691 13.5256H72.4771ZM79.8241 18.9336C79.0988 18.9336 78.4481 18.8056 77.8721 18.5496C77.2961 18.2829 76.8375 17.9256 76.4961 17.4776C76.1655 17.0296 75.9841 16.5336 75.9521 15.9896H78.2081C78.2508 16.3309 78.4161 16.6136 78.7041 16.8376C79.0028 17.0616 79.3708 17.1736 79.8081 17.1736C80.2348 17.1736 80.5655 17.0882 80.8001 16.9176C81.0455 16.7469 81.1681 16.5282 81.1681 16.2616C81.1681 15.9736 81.0188 15.7602 80.7201 15.6216C80.4321 15.4722 79.9681 15.3122 79.3281 15.1416C78.6668 14.9816 78.1228 14.8162 77.6961 14.6456C77.2801 14.4749 76.9175 14.2136 76.6081 13.8616C76.3095 13.5096 76.1601 13.0349 76.1601 12.4376C76.1601 11.9469 76.2988 11.4989 76.5761 11.0936C76.8641 10.6882 77.2695 10.3682 77.7921 10.1336C78.3255 9.89888 78.9495 9.78155 79.6641 9.78155C80.7201 9.78155 81.5628 10.0482 82.1921 10.5816C82.8215 11.1042 83.1681 11.8136 83.2321 12.7096H81.0881C81.0561 12.3576 80.9068 12.0802 80.6401 11.8776C80.3841 11.6642 80.0375 11.5576 79.6001 11.5576C79.1948 11.5576 78.8801 11.6322 78.6561 11.7816C78.4428 11.9309 78.3361 12.1389 78.3361 12.4056C78.3361 12.7042 78.4855 12.9336 78.7841 13.0936C79.0828 13.2429 79.5468 13.3976 80.1761 13.5576C80.8161 13.7176 81.3441 13.8829 81.7601 14.0536C82.1761 14.2242 82.5335 14.4909 82.8321 14.8536C83.1415 15.2056 83.3015 15.6749 83.3121 16.2616C83.3121 16.7736 83.1681 17.2322 82.8801 17.6376C82.6028 18.0429 82.1975 18.3629 81.6641 18.5976C81.1415 18.8216 80.5281 18.9336 79.8241 18.9336ZM88.5429 18.9336C87.8175 18.9336 87.1669 18.8056 86.5909 18.5496C86.0149 18.2829 85.5562 17.9256 85.2149 17.4776C84.8842 17.0296 84.7029 16.5336 84.6709 15.9896H86.9269C86.9695 16.3309 87.1349 16.6136 87.4229 16.8376C87.7215 17.0616 88.0895 17.1736 88.5269 17.1736C88.9535 17.1736 89.2842 17.0882 89.5189 16.9176C89.7642 16.7469 89.8869 16.5282 89.8869 16.2616C89.8869 15.9736 89.7375 15.7602 89.4389 15.6216C89.1509 15.4722 88.6869 15.3122 88.0469 15.1416C87.3855 14.9816 86.8415 14.8162 86.4149 14.6456C85.9989 14.4749 85.6362 14.2136 85.3269 13.8616C85.0282 13.5096 84.8789 13.0349 84.8789 12.4376C84.8789 11.9469 85.0175 11.4989 85.2949 11.0936C85.5829 10.6882 85.9882 10.3682 86.5109 10.1336C87.0442 9.89888 87.6682 9.78155 88.3829 9.78155C89.4389 9.78155 90.2815 10.0482 90.9109 10.5816C91.5402 11.1042 91.8869 11.8136 91.9509 12.7096H89.8069C89.7749 12.3576 89.6255 12.0802 89.3589 11.8776C89.1029 11.6642 88.7562 11.5576 88.3189 11.5576C87.9135 11.5576 87.5989 11.6322 87.3749 11.7816C87.1615 11.9309 87.0549 12.1389 87.0549 12.4056C87.0549 12.7042 87.2042 12.9336 87.5029 13.0936C87.8015 13.2429 88.2655 13.3976 88.8949 13.5576C89.5349 13.7176 90.0629 13.8829 90.4789 14.0536C90.8949 14.2242 91.2522 14.4909 91.5509 14.8536C91.8602 15.2056 92.0202 15.6749 92.0309 16.2616C92.0309 16.7736 91.8869 17.2322 91.5989 17.6376C91.3215 18.0429 90.9162 18.3629 90.3829 18.5976C89.8602 18.8216 89.2469 18.9336 88.5429 18.9336Z" fill="black"/>
</svg>
